%TF.GenerationSoftware,KiCad,Pcbnew,7.0.8*%
%TF.CreationDate,2024-04-25T10:28:09-06:00*%
%TF.ProjectId,ProtoBadge,50726f74-6f42-4616-9467-652e6b696361,rev?*%
%TF.SameCoordinates,Original*%
%TF.FileFunction,Copper,L2,Bot*%
%TF.FilePolarity,Positive*%
%FSLAX46Y46*%
G04 Gerber Fmt 4.6, Leading zero omitted, Abs format (unit mm)*
G04 Created by KiCad (PCBNEW 7.0.8) date 2024-04-25 10:28:09*
%MOMM*%
%LPD*%
G01*
G04 APERTURE LIST*
G04 Aperture macros list*
%AMRoundRect*
0 Rectangle with rounded corners*
0 $1 Rounding radius*
0 $2 $3 $4 $5 $6 $7 $8 $9 X,Y pos of 4 corners*
0 Add a 4 corners polygon primitive as box body*
4,1,4,$2,$3,$4,$5,$6,$7,$8,$9,$2,$3,0*
0 Add four circle primitives for the rounded corners*
1,1,$1+$1,$2,$3*
1,1,$1+$1,$4,$5*
1,1,$1+$1,$6,$7*
1,1,$1+$1,$8,$9*
0 Add four rect primitives between the rounded corners*
20,1,$1+$1,$2,$3,$4,$5,0*
20,1,$1+$1,$4,$5,$6,$7,0*
20,1,$1+$1,$6,$7,$8,$9,0*
20,1,$1+$1,$8,$9,$2,$3,0*%
G04 Aperture macros list end*
%TA.AperFunction,ComponentPad*%
%ADD10RoundRect,0.250001X-0.899999X-0.899999X0.899999X-0.899999X0.899999X0.899999X-0.899999X0.899999X0*%
%TD*%
%TA.AperFunction,SMDPad,CuDef*%
%ADD11RoundRect,0.455375X0.455375X1.675625X-0.455375X1.675625X-0.455375X-1.675625X0.455375X-1.675625X0*%
%TD*%
%TA.AperFunction,SMDPad,CuDef*%
%ADD12RoundRect,0.500000X0.500000X1.631000X-0.500000X1.631000X-0.500000X-1.631000X0.500000X-1.631000X0*%
%TD*%
%TA.AperFunction,ComponentPad*%
%ADD13R,1.800000X1.800000*%
%TD*%
%TA.AperFunction,ComponentPad*%
%ADD14C,1.800000*%
%TD*%
%TA.AperFunction,ComponentPad*%
%ADD15R,1.500000X1.500000*%
%TD*%
%TA.AperFunction,ComponentPad*%
%ADD16C,1.500000*%
%TD*%
%TA.AperFunction,SMDPad,CuDef*%
%ADD17RoundRect,0.500000X0.500000X2.040000X-0.500000X2.040000X-0.500000X-2.040000X0.500000X-2.040000X0*%
%TD*%
%TA.AperFunction,ComponentPad*%
%ADD18R,1.560000X1.560000*%
%TD*%
%TA.AperFunction,ComponentPad*%
%ADD19C,1.560000*%
%TD*%
%TA.AperFunction,ComponentPad*%
%ADD20O,1.600000X1.600000*%
%TD*%
%TA.AperFunction,ComponentPad*%
%ADD21C,1.600000*%
%TD*%
%TA.AperFunction,Conductor*%
%ADD22C,0.508000*%
%TD*%
G04 APERTURE END LIST*
D10*
%TO.P,J2,1,Pin_1*%
%TO.N,GND*%
X104000000Y-131000000D03*
%TD*%
%TO.P,J1,1,Pin_1*%
%TO.N,+BATT*%
X104470519Y-93019691D03*
%TD*%
D11*
%TO.P,SW2,2,2*%
%TO.N,/BTN_2*%
X63410750Y-92650000D03*
D12*
%TO.P,SW2,1,1*%
%TO.N,+3.3V*%
X68500000Y-92650000D03*
%TD*%
%TO.P,SW1,2,2*%
%TO.N,/BTN_1*%
X57500000Y-92650000D03*
D11*
%TO.P,SW1,1,1*%
%TO.N,+3.3V*%
X52410750Y-92650000D03*
%TD*%
D13*
%TO.P,D1,2,A*%
%TO.N,Net-(D1-A)*%
X88275000Y-93750000D03*
D14*
%TO.P,D1,1,K*%
%TO.N,Net-(D1-K)*%
X85735000Y-93750000D03*
%TD*%
D15*
%TO.P,Q1,1,S*%
%TO.N,GND*%
X88812302Y-102076692D03*
D16*
%TO.P,Q1,2,G*%
%TO.N,/LED_1*%
X88812302Y-99536692D03*
%TO.P,Q1,3,D*%
%TO.N,Net-(D1-K)*%
X88812302Y-96996692D03*
%TD*%
D17*
%TO.P,SW3,1,A*%
%TO.N,+BATT*%
X100594182Y-93000000D03*
%TO.P,SW3,2,B*%
%TO.N,+4V*%
X98054182Y-93000000D03*
%TO.P,SW3,3,C*%
%TO.N,unconnected-(SW3-C-Pad3)*%
X95514182Y-93000000D03*
%TD*%
D18*
%TO.P,U1,J2-1,3V3*%
%TO.N,+3.3V*%
X53840000Y-130700000D03*
D19*
%TO.P,U1,J2-2,EN*%
%TO.N,unconnected-(U1-EN-PadJ2-2)*%
X56380000Y-130700000D03*
%TO.P,U1,J2-19,EXT_5V*%
%TO.N,+4V*%
X99560000Y-130700000D03*
%TO.P,U1,J2-3,SENSOR_VP*%
%TO.N,unconnected-(U1-SENSOR_VP-PadJ2-3)*%
X58920000Y-130700000D03*
%TO.P,U1,J2-4,SENSOR_VN*%
%TO.N,unconnected-(U1-SENSOR_VN-PadJ2-4)*%
X61460000Y-130700000D03*
%TO.P,U1,J2-5,IO34*%
%TO.N,unconnected-(U1-IO34-PadJ2-5)*%
X64000000Y-130700000D03*
%TO.P,U1,J2-6,IO35*%
%TO.N,unconnected-(U1-IO35-PadJ2-6)*%
X66540000Y-130700000D03*
%TO.P,U1,J2-7,IO32*%
%TO.N,unconnected-(U1-IO32-PadJ2-7)*%
X69080000Y-130700000D03*
%TO.P,U1,J2-8,IO33*%
%TO.N,unconnected-(U1-IO33-PadJ2-8)*%
X71620000Y-130700000D03*
%TO.P,U1,J2-9,IO25*%
%TO.N,unconnected-(U1-IO25-PadJ2-9)*%
X74160000Y-130700000D03*
%TO.P,U1,J2-10,IO26*%
%TO.N,unconnected-(U1-IO26-PadJ2-10)*%
X76700000Y-130700000D03*
%TO.P,U1,J2-11,IO27*%
%TO.N,unconnected-(U1-IO27-PadJ2-11)*%
X79240000Y-130700000D03*
%TO.P,U1,J2-12,IO14*%
%TO.N,unconnected-(U1-IO14-PadJ2-12)*%
X81780000Y-130700000D03*
%TO.P,U1,J2-13,IO12*%
%TO.N,unconnected-(U1-IO12-PadJ2-13)*%
X84320000Y-130700000D03*
%TO.P,U1,J2-14,GND1*%
%TO.N,GND*%
X86860000Y-130700000D03*
%TO.P,U1,J2-15,IO13*%
%TO.N,unconnected-(U1-IO13-PadJ2-15)*%
X89400000Y-130700000D03*
%TO.P,U1,J2-16,SD2*%
%TO.N,unconnected-(U1-SD2-PadJ2-16)*%
X91940000Y-130700000D03*
%TO.P,U1,J2-17,SD3*%
%TO.N,unconnected-(U1-SD3-PadJ2-17)*%
X94480000Y-130700000D03*
%TO.P,U1,J2-18,CMD*%
%TO.N,unconnected-(U1-CMD-PadJ2-18)*%
X97020000Y-130700000D03*
%TO.P,U1,J3-1,GND3*%
%TO.N,GND*%
X53840000Y-105300000D03*
%TO.P,U1,J3-2,IO23*%
%TO.N,/BTN_1*%
X56380000Y-105300000D03*
%TO.P,U1,J3-3,IO22*%
%TO.N,/BTN_2*%
X58920000Y-105300000D03*
%TO.P,U1,J3-4,TXD0*%
%TO.N,unconnected-(U1-TXD0-PadJ3-4)*%
X61460000Y-105300000D03*
%TO.P,U1,J3-5,RXD0*%
%TO.N,unconnected-(U1-RXD0-PadJ3-5)*%
X64000000Y-105300000D03*
%TO.P,U1,J3-6,IO21*%
%TO.N,unconnected-(U1-IO21-PadJ3-6)*%
X66540000Y-105300000D03*
%TO.P,U1,J3-7,GND2*%
%TO.N,GND*%
X69080000Y-105300000D03*
%TO.P,U1,J3-8,IO19*%
%TO.N,/LED_2*%
X71620000Y-105300000D03*
%TO.P,U1,J3-9,IO18*%
%TO.N,unconnected-(U1-IO18-PadJ3-9)*%
X74160000Y-105300000D03*
%TO.P,U1,J3-10,IO5*%
%TO.N,unconnected-(U1-IO5-PadJ3-10)*%
X76700000Y-105300000D03*
%TO.P,U1,J3-11,IO17*%
%TO.N,/LED_1*%
X79240000Y-105300000D03*
%TO.P,U1,J3-12,IO16*%
%TO.N,unconnected-(U1-IO16-PadJ3-12)*%
X81780000Y-105300000D03*
%TO.P,U1,J3-13,IO4*%
%TO.N,unconnected-(U1-IO4-PadJ3-13)*%
X84320000Y-105300000D03*
%TO.P,U1,J3-14,IO0*%
%TO.N,unconnected-(U1-IO0-PadJ3-14)*%
X86860000Y-105300000D03*
%TO.P,U1,J3-15,IO2*%
%TO.N,unconnected-(U1-IO2-PadJ3-15)*%
X89400000Y-105300000D03*
%TO.P,U1,J3-16,IO15*%
%TO.N,unconnected-(U1-IO15-PadJ3-16)*%
X91940000Y-105300000D03*
%TO.P,U1,J3-17,SD1*%
%TO.N,unconnected-(U1-SD1-PadJ3-17)*%
X94480000Y-105300000D03*
%TO.P,U1,J3-18,SD0*%
%TO.N,unconnected-(U1-SD0-PadJ3-18)*%
X97020000Y-105300000D03*
%TO.P,U1,J3-19,CLK*%
%TO.N,unconnected-(U1-CLK-PadJ3-19)*%
X99560000Y-105300000D03*
%TD*%
D20*
%TO.P,R5,2*%
%TO.N,GND*%
X67482395Y-98011335D03*
D21*
%TO.P,R5,1*%
%TO.N,Net-(D2-K)*%
X77642395Y-98011335D03*
%TD*%
D20*
%TO.P,R4,2*%
%TO.N,GND*%
X67482395Y-101011335D03*
D21*
%TO.P,R4,1*%
%TO.N,/LED_1*%
X77642395Y-101011335D03*
%TD*%
D20*
%TO.P,R3,2*%
%TO.N,Net-(D1-A)*%
X92840000Y-99000000D03*
D21*
%TO.P,R3,1*%
%TO.N,+4V*%
X103000000Y-99000000D03*
%TD*%
D20*
%TO.P,R2,2*%
%TO.N,GND*%
X52000000Y-101000000D03*
D21*
%TO.P,R2,1*%
%TO.N,/BTN_2*%
X62160000Y-101000000D03*
%TD*%
D20*
%TO.P,R1,2*%
%TO.N,GND*%
X62160000Y-98000000D03*
D21*
%TO.P,R1,1*%
%TO.N,/BTN_1*%
X52000000Y-98000000D03*
%TD*%
D13*
%TO.P,D2,1,K*%
%TO.N,Net-(D2-K)*%
X79250000Y-93750610D03*
D14*
%TO.P,D2,2,A*%
%TO.N,/LED_2*%
X76710000Y-93750610D03*
%TD*%
D22*
%TO.N,+BATT*%
X104470519Y-93019691D02*
X100613873Y-93019691D01*
X100613873Y-93019691D02*
X100594182Y-93000000D01*
%TO.N,+4V*%
X98054182Y-93000000D02*
X98054182Y-95540000D01*
X98054182Y-95540000D02*
X101514182Y-99000000D01*
X101514182Y-99000000D02*
X103000000Y-99000000D01*
X99560000Y-130700000D02*
X104628212Y-125631788D01*
X104628212Y-125631788D02*
X104628212Y-100628212D01*
X104628212Y-100628212D02*
X103000000Y-99000000D01*
%TO.N,+3.3V*%
X68500000Y-92650000D02*
X70150000Y-91000000D01*
X99000000Y-99000000D02*
X103000000Y-103000000D01*
X70150000Y-91000000D02*
X91000000Y-91000000D01*
X93000000Y-95000000D02*
X97000000Y-99000000D01*
X91000000Y-91000000D02*
X93000000Y-93000000D01*
X103000000Y-103000000D02*
X103000000Y-109000000D01*
X93000000Y-93000000D02*
X93000000Y-95000000D01*
X97000000Y-99000000D02*
X99000000Y-99000000D01*
X103000000Y-109000000D02*
X85000000Y-127000000D01*
X85000000Y-127000000D02*
X59940000Y-127000000D01*
%TO.N,/LED_1*%
X77642395Y-101011335D02*
X81000000Y-101011335D01*
X81000000Y-101011335D02*
X82988665Y-101011335D01*
X79240000Y-105300000D02*
X79240000Y-102771335D01*
X79240000Y-102771335D02*
X81000000Y-101011335D01*
%TO.N,/LED_2*%
X71620000Y-105300000D02*
X71620000Y-98840610D01*
X71620000Y-98840610D02*
X76710000Y-93750610D01*
%TO.N,/BTN_2*%
X59324580Y-99324580D02*
X58920000Y-99729160D01*
X58920000Y-99729160D02*
X58920000Y-105300000D01*
%TO.N,/BTN_1*%
X54575000Y-95575000D02*
X54075000Y-96075000D01*
X56380000Y-105300000D02*
X56380000Y-98380000D01*
X54075000Y-96075000D02*
X52150000Y-98000000D01*
X56380000Y-98380000D02*
X54075000Y-96075000D01*
%TO.N,+3.3V*%
X52410750Y-92650000D02*
X49000000Y-96060750D01*
X49000000Y-96060750D02*
X49000000Y-116060000D01*
X49000000Y-116060000D02*
X59940000Y-127000000D01*
X59940000Y-127000000D02*
X56240000Y-130700000D01*
%TO.N,/BTN_2*%
X63410750Y-92650000D02*
X59324580Y-96736170D01*
X59324580Y-99324580D02*
X61000000Y-101000000D01*
X59324580Y-96736170D02*
X59324580Y-99324580D01*
X61000000Y-101000000D02*
X62160000Y-101000000D01*
%TO.N,/BTN_1*%
X57500000Y-92650000D02*
X54575000Y-95575000D01*
X52150000Y-98000000D02*
X52000000Y-98000000D01*
%TO.N,Net-(D1-A)*%
X88275000Y-93750000D02*
X89512500Y-93750000D01*
X89512500Y-93750000D02*
X92840000Y-97077500D01*
X92840000Y-97077500D02*
X92840000Y-99000000D01*
%TO.N,Net-(D1-K)*%
X85735000Y-93750000D02*
X85735000Y-95735000D01*
X85735000Y-95735000D02*
X86996692Y-96996692D01*
X86996692Y-96996692D02*
X88812302Y-96996692D01*
%TO.N,/LED_1*%
X82988665Y-101011335D02*
X84463308Y-99536692D01*
X84463308Y-99536692D02*
X88812302Y-99536692D01*
%TO.N,Net-(D2-K)*%
X79250000Y-93750610D02*
X79250000Y-96403730D01*
X79250000Y-96403730D02*
X77642395Y-98011335D01*
%TO.N,/BTN_2*%
X62160000Y-101000000D02*
X62000000Y-101160000D01*
%TO.N,/BTN_1*%
X52410750Y-97589250D02*
X52000000Y-98000000D01*
%TD*%
%TA.AperFunction,Conductor*%
%TO.N,GND*%
G36*
X51154196Y-90020185D02*
G01*
X51199951Y-90072989D01*
X51209895Y-90142147D01*
X51180870Y-90205703D01*
X51174838Y-90212181D01*
X51110356Y-90276662D01*
X51110353Y-90276665D01*
X50993578Y-90449202D01*
X50911574Y-90640701D01*
X50911569Y-90640716D01*
X50867289Y-90844272D01*
X50867288Y-90844278D01*
X50865559Y-90873301D01*
X50864500Y-90891084D01*
X50864500Y-92886944D01*
X50844815Y-92953983D01*
X50828181Y-92974625D01*
X48427433Y-95375372D01*
X48412644Y-95388004D01*
X48401531Y-95396078D01*
X48401527Y-95396082D01*
X48355646Y-95447038D01*
X48353416Y-95449389D01*
X48338071Y-95464734D01*
X48338056Y-95464751D01*
X48324402Y-95481612D01*
X48322297Y-95484076D01*
X48276416Y-95535033D01*
X48276410Y-95535041D01*
X48269547Y-95546928D01*
X48258533Y-95562954D01*
X48249891Y-95573626D01*
X48218761Y-95634723D01*
X48217213Y-95637573D01*
X48182925Y-95696964D01*
X48182924Y-95696966D01*
X48178681Y-95710025D01*
X48171241Y-95727987D01*
X48165006Y-95740226D01*
X48147251Y-95806485D01*
X48146335Y-95809577D01*
X48125145Y-95874790D01*
X48125144Y-95874797D01*
X48123709Y-95888447D01*
X48120166Y-95907565D01*
X48116610Y-95920835D01*
X48113022Y-95989314D01*
X48112768Y-95992548D01*
X48110500Y-96014125D01*
X48110500Y-96035827D01*
X48110415Y-96039070D01*
X48108716Y-96071498D01*
X48106826Y-96107560D01*
X48108973Y-96121114D01*
X48110500Y-96140514D01*
X48110500Y-115980235D01*
X48108973Y-115999634D01*
X48106826Y-116013189D01*
X48110415Y-116081676D01*
X48110500Y-116084921D01*
X48110500Y-116106621D01*
X48112768Y-116128199D01*
X48113022Y-116131434D01*
X48116610Y-116199912D01*
X48116611Y-116199915D01*
X48120166Y-116213184D01*
X48123709Y-116232298D01*
X48124832Y-116242985D01*
X48125145Y-116245958D01*
X48146331Y-116311160D01*
X48147252Y-116314271D01*
X48165004Y-116380520D01*
X48171236Y-116392751D01*
X48178681Y-116410724D01*
X48182925Y-116423785D01*
X48217225Y-116483195D01*
X48218751Y-116486005D01*
X48249893Y-116547125D01*
X48258529Y-116557789D01*
X48269549Y-116573824D01*
X48276412Y-116585712D01*
X48276415Y-116585715D01*
X48322311Y-116636688D01*
X48324392Y-116639124D01*
X48336072Y-116653548D01*
X48338058Y-116656000D01*
X48338069Y-116656013D01*
X48353403Y-116671346D01*
X48355637Y-116673701D01*
X48401527Y-116724666D01*
X48401530Y-116724669D01*
X48412643Y-116732743D01*
X48427432Y-116745375D01*
X58594376Y-126912319D01*
X58627861Y-126973642D01*
X58622877Y-127043334D01*
X58594376Y-127087681D01*
X56433876Y-129248181D01*
X56372553Y-129281666D01*
X56346195Y-129284500D01*
X56262708Y-129284500D01*
X56245725Y-129287334D01*
X56031320Y-129323111D01*
X55809459Y-129399277D01*
X55809451Y-129399280D01*
X55603139Y-129510931D01*
X55505079Y-129587255D01*
X55418022Y-129655014D01*
X55418019Y-129655016D01*
X55418018Y-129655018D01*
X55399272Y-129675382D01*
X55339384Y-129711372D01*
X55269546Y-129709271D01*
X55211931Y-129669746D01*
X55201314Y-129654524D01*
X55126135Y-129527402D01*
X55126133Y-129527400D01*
X55126130Y-129527396D01*
X55012603Y-129413869D01*
X55012595Y-129413863D01*
X54874393Y-129332131D01*
X54874388Y-129332129D01*
X54720208Y-129287335D01*
X54720202Y-129287334D01*
X54684183Y-129284500D01*
X54684181Y-129284500D01*
X52995820Y-129284501D01*
X52959795Y-129287335D01*
X52805611Y-129332129D01*
X52805606Y-129332131D01*
X52667404Y-129413863D01*
X52667396Y-129413869D01*
X52553869Y-129527396D01*
X52553863Y-129527404D01*
X52472131Y-129665606D01*
X52472129Y-129665611D01*
X52427335Y-129819791D01*
X52427334Y-129819797D01*
X52426090Y-129835612D01*
X52424500Y-129855819D01*
X52424501Y-130700000D01*
X52424501Y-131544180D01*
X52427335Y-131580204D01*
X52472129Y-131734388D01*
X52472131Y-131734393D01*
X52553864Y-131872597D01*
X52553869Y-131872603D01*
X52667396Y-131986130D01*
X52667400Y-131986133D01*
X52667402Y-131986135D01*
X52805607Y-132067869D01*
X52836651Y-132076888D01*
X52959791Y-132112664D01*
X52959794Y-132112664D01*
X52959796Y-132112665D01*
X52971803Y-132113610D01*
X52995817Y-132115500D01*
X52995818Y-132115499D01*
X52995819Y-132115500D01*
X54684180Y-132115499D01*
X54720204Y-132112665D01*
X54874393Y-132067869D01*
X55012598Y-131986135D01*
X55126135Y-131872598D01*
X55201313Y-131745477D01*
X55252379Y-131697797D01*
X55321121Y-131685293D01*
X55385710Y-131711938D01*
X55399273Y-131724619D01*
X55418013Y-131744977D01*
X55418015Y-131744979D01*
X55418022Y-131744986D01*
X55603142Y-131889070D01*
X55809452Y-132000720D01*
X55924662Y-132040272D01*
X56031320Y-132076888D01*
X56031322Y-132076888D01*
X56031324Y-132076889D01*
X56262708Y-132115500D01*
X56262709Y-132115500D01*
X56497291Y-132115500D01*
X56497292Y-132115500D01*
X56728676Y-132076889D01*
X56950548Y-132000720D01*
X57156858Y-131889070D01*
X57341978Y-131744986D01*
X57500857Y-131572398D01*
X57500858Y-131572395D01*
X57500861Y-131572393D01*
X57546191Y-131503009D01*
X57599336Y-131457651D01*
X57668568Y-131448227D01*
X57731904Y-131477728D01*
X57753809Y-131503009D01*
X57799138Y-131572393D01*
X57799143Y-131572398D01*
X57958022Y-131744986D01*
X58143142Y-131889070D01*
X58349452Y-132000720D01*
X58464662Y-132040272D01*
X58571320Y-132076888D01*
X58571322Y-132076888D01*
X58571324Y-132076889D01*
X58802708Y-132115500D01*
X58802709Y-132115500D01*
X59037291Y-132115500D01*
X59037292Y-132115500D01*
X59268676Y-132076889D01*
X59490548Y-132000720D01*
X59696858Y-131889070D01*
X59881978Y-131744986D01*
X60040857Y-131572398D01*
X60040858Y-131572395D01*
X60040861Y-131572393D01*
X60086191Y-131503009D01*
X60139336Y-131457651D01*
X60208568Y-131448227D01*
X60271904Y-131477728D01*
X60293809Y-131503009D01*
X60339138Y-131572393D01*
X60339143Y-131572398D01*
X60498022Y-131744986D01*
X60683142Y-131889070D01*
X60889452Y-132000720D01*
X61004662Y-132040272D01*
X61111320Y-132076888D01*
X61111322Y-132076888D01*
X61111324Y-132076889D01*
X61342708Y-132115500D01*
X61342709Y-132115500D01*
X61577291Y-132115500D01*
X61577292Y-132115500D01*
X61808676Y-132076889D01*
X62030548Y-132000720D01*
X62236858Y-131889070D01*
X62421978Y-131744986D01*
X62580857Y-131572398D01*
X62580858Y-131572395D01*
X62580861Y-131572393D01*
X62626191Y-131503009D01*
X62679336Y-131457651D01*
X62748568Y-131448227D01*
X62811904Y-131477728D01*
X62833809Y-131503009D01*
X62879138Y-131572393D01*
X62879143Y-131572398D01*
X63038022Y-131744986D01*
X63223142Y-131889070D01*
X63429452Y-132000720D01*
X63544662Y-132040272D01*
X63651320Y-132076888D01*
X63651322Y-132076888D01*
X63651324Y-132076889D01*
X63882708Y-132115500D01*
X63882709Y-132115500D01*
X64117291Y-132115500D01*
X64117292Y-132115500D01*
X64348676Y-132076889D01*
X64570548Y-132000720D01*
X64776858Y-131889070D01*
X64961978Y-131744986D01*
X65120857Y-131572398D01*
X65120858Y-131572395D01*
X65120861Y-131572393D01*
X65166191Y-131503009D01*
X65219336Y-131457651D01*
X65288568Y-131448227D01*
X65351904Y-131477728D01*
X65373809Y-131503009D01*
X65419138Y-131572393D01*
X65419143Y-131572398D01*
X65578022Y-131744986D01*
X65763142Y-131889070D01*
X65969452Y-132000720D01*
X66084662Y-132040272D01*
X66191320Y-132076888D01*
X66191322Y-132076888D01*
X66191324Y-132076889D01*
X66422708Y-132115500D01*
X66422709Y-132115500D01*
X66657291Y-132115500D01*
X66657292Y-132115500D01*
X66888676Y-132076889D01*
X67110548Y-132000720D01*
X67316858Y-131889070D01*
X67501978Y-131744986D01*
X67660857Y-131572398D01*
X67660858Y-131572395D01*
X67660861Y-131572393D01*
X67706191Y-131503009D01*
X67759336Y-131457651D01*
X67828568Y-131448227D01*
X67891904Y-131477728D01*
X67913809Y-131503009D01*
X67959138Y-131572393D01*
X67959143Y-131572398D01*
X68118022Y-131744986D01*
X68303142Y-131889070D01*
X68509452Y-132000720D01*
X68624662Y-132040272D01*
X68731320Y-132076888D01*
X68731322Y-132076888D01*
X68731324Y-132076889D01*
X68962708Y-132115500D01*
X68962709Y-132115500D01*
X69197291Y-132115500D01*
X69197292Y-132115500D01*
X69428676Y-132076889D01*
X69650548Y-132000720D01*
X69856858Y-131889070D01*
X70041978Y-131744986D01*
X70200857Y-131572398D01*
X70200858Y-131572395D01*
X70200861Y-131572393D01*
X70246191Y-131503009D01*
X70299336Y-131457651D01*
X70368568Y-131448227D01*
X70431904Y-131477728D01*
X70453809Y-131503009D01*
X70499138Y-131572393D01*
X70499143Y-131572398D01*
X70658022Y-131744986D01*
X70843142Y-131889070D01*
X71049452Y-132000720D01*
X71164662Y-132040272D01*
X71271320Y-132076888D01*
X71271322Y-132076888D01*
X71271324Y-132076889D01*
X71502708Y-132115500D01*
X71502709Y-132115500D01*
X71737291Y-132115500D01*
X71737292Y-132115500D01*
X71968676Y-132076889D01*
X72190548Y-132000720D01*
X72396858Y-131889070D01*
X72581978Y-131744986D01*
X72740857Y-131572398D01*
X72740858Y-131572395D01*
X72740861Y-131572393D01*
X72786191Y-131503009D01*
X72839336Y-131457651D01*
X72908568Y-131448227D01*
X72971904Y-131477728D01*
X72993809Y-131503009D01*
X73039138Y-131572393D01*
X73039143Y-131572398D01*
X73198022Y-131744986D01*
X73383142Y-131889070D01*
X73589452Y-132000720D01*
X73704662Y-132040272D01*
X73811320Y-132076888D01*
X73811322Y-132076888D01*
X73811324Y-132076889D01*
X74042708Y-132115500D01*
X74042709Y-132115500D01*
X74277291Y-132115500D01*
X74277292Y-132115500D01*
X74508676Y-132076889D01*
X74730548Y-132000720D01*
X74936858Y-131889070D01*
X75121978Y-131744986D01*
X75280857Y-131572398D01*
X75280858Y-131572395D01*
X75280861Y-131572393D01*
X75326191Y-131503009D01*
X75379336Y-131457651D01*
X75448568Y-131448227D01*
X75511904Y-131477728D01*
X75533809Y-131503009D01*
X75579138Y-131572393D01*
X75579143Y-131572398D01*
X75738022Y-131744986D01*
X75923142Y-131889070D01*
X76129452Y-132000720D01*
X76244662Y-132040272D01*
X76351320Y-132076888D01*
X76351322Y-132076888D01*
X76351324Y-132076889D01*
X76582708Y-132115500D01*
X76582709Y-132115500D01*
X76817291Y-132115500D01*
X76817292Y-132115500D01*
X77048676Y-132076889D01*
X77270548Y-132000720D01*
X77476858Y-131889070D01*
X77661978Y-131744986D01*
X77820857Y-131572398D01*
X77820858Y-131572395D01*
X77820861Y-131572393D01*
X77866191Y-131503009D01*
X77919336Y-131457651D01*
X77988568Y-131448227D01*
X78051904Y-131477728D01*
X78073809Y-131503009D01*
X78119138Y-131572393D01*
X78119143Y-131572398D01*
X78278022Y-131744986D01*
X78463142Y-131889070D01*
X78669452Y-132000720D01*
X78784662Y-132040272D01*
X78891320Y-132076888D01*
X78891322Y-132076888D01*
X78891324Y-132076889D01*
X79122708Y-132115500D01*
X79122709Y-132115500D01*
X79357291Y-132115500D01*
X79357292Y-132115500D01*
X79588676Y-132076889D01*
X79810548Y-132000720D01*
X80016858Y-131889070D01*
X80201978Y-131744986D01*
X80360857Y-131572398D01*
X80360858Y-131572395D01*
X80360861Y-131572393D01*
X80406191Y-131503009D01*
X80459336Y-131457651D01*
X80528568Y-131448227D01*
X80591904Y-131477728D01*
X80613809Y-131503009D01*
X80659138Y-131572393D01*
X80659143Y-131572398D01*
X80818022Y-131744986D01*
X81003142Y-131889070D01*
X81209452Y-132000720D01*
X81324662Y-132040272D01*
X81431320Y-132076888D01*
X81431322Y-132076888D01*
X81431324Y-132076889D01*
X81662708Y-132115500D01*
X81662709Y-132115500D01*
X81897291Y-132115500D01*
X81897292Y-132115500D01*
X82128676Y-132076889D01*
X82350548Y-132000720D01*
X82556858Y-131889070D01*
X82741978Y-131744986D01*
X82900857Y-131572398D01*
X82900858Y-131572395D01*
X82900861Y-131572393D01*
X82946191Y-131503009D01*
X82999336Y-131457651D01*
X83068568Y-131448227D01*
X83131904Y-131477728D01*
X83153809Y-131503009D01*
X83199138Y-131572393D01*
X83199143Y-131572398D01*
X83358022Y-131744986D01*
X83543142Y-131889070D01*
X83749452Y-132000720D01*
X83864662Y-132040272D01*
X83971320Y-132076888D01*
X83971322Y-132076888D01*
X83971324Y-132076889D01*
X84202708Y-132115500D01*
X84202709Y-132115500D01*
X84437291Y-132115500D01*
X84437292Y-132115500D01*
X84668676Y-132076889D01*
X84890548Y-132000720D01*
X85096858Y-131889070D01*
X85281978Y-131744986D01*
X85440857Y-131572398D01*
X85566217Y-131380518D01*
X85619362Y-131335162D01*
X85688593Y-131325738D01*
X85751929Y-131355239D01*
X85771599Y-131377216D01*
X85795333Y-131411111D01*
X85795334Y-131411111D01*
X86359439Y-130847006D01*
X86365418Y-130875775D01*
X86431181Y-131002693D01*
X86528749Y-131107162D01*
X86650884Y-131181434D01*
X86714339Y-131199213D01*
X86148887Y-131764665D01*
X86217548Y-131812742D01*
X86217554Y-131812746D01*
X86420540Y-131907399D01*
X86420549Y-131907403D01*
X86636875Y-131965367D01*
X86636886Y-131965369D01*
X86859998Y-131984889D01*
X86860002Y-131984889D01*
X87083113Y-131965369D01*
X87083124Y-131965367D01*
X87299450Y-131907403D01*
X87299464Y-131907398D01*
X87502440Y-131812749D01*
X87571111Y-131764664D01*
X87008765Y-131202318D01*
X87132724Y-131148475D01*
X87243608Y-131058265D01*
X87326041Y-130941483D01*
X87359864Y-130846311D01*
X87924664Y-131411110D01*
X87948398Y-131377215D01*
X88002975Y-131333590D01*
X88072474Y-131326398D01*
X88134828Y-131357920D01*
X88153782Y-131380518D01*
X88279140Y-131572395D01*
X88279143Y-131572398D01*
X88438022Y-131744986D01*
X88623142Y-131889070D01*
X88829452Y-132000720D01*
X88944662Y-132040272D01*
X89051320Y-132076888D01*
X89051322Y-132076888D01*
X89051324Y-132076889D01*
X89282708Y-132115500D01*
X89282709Y-132115500D01*
X89517291Y-132115500D01*
X89517292Y-132115500D01*
X89748676Y-132076889D01*
X89970548Y-132000720D01*
X90176858Y-131889070D01*
X90361978Y-131744986D01*
X90520857Y-131572398D01*
X90520858Y-131572395D01*
X90520861Y-131572393D01*
X90566191Y-131503009D01*
X90619336Y-131457651D01*
X90688568Y-131448227D01*
X90751904Y-131477728D01*
X90773809Y-131503009D01*
X90819138Y-131572393D01*
X90819143Y-131572398D01*
X90978022Y-131744986D01*
X91163142Y-131889070D01*
X91369452Y-132000720D01*
X91484662Y-132040272D01*
X91591320Y-132076888D01*
X91591322Y-132076888D01*
X91591324Y-132076889D01*
X91822708Y-132115500D01*
X91822709Y-132115500D01*
X92057291Y-132115500D01*
X92057292Y-132115500D01*
X92288676Y-132076889D01*
X92510548Y-132000720D01*
X92716858Y-131889070D01*
X92901978Y-131744986D01*
X93060857Y-131572398D01*
X93060858Y-131572395D01*
X93060861Y-131572393D01*
X93106191Y-131503009D01*
X93159336Y-131457651D01*
X93228568Y-131448227D01*
X93291904Y-131477728D01*
X93313809Y-131503009D01*
X93359138Y-131572393D01*
X93359143Y-131572398D01*
X93518022Y-131744986D01*
X93703142Y-131889070D01*
X93909452Y-132000720D01*
X94024662Y-132040272D01*
X94131320Y-132076888D01*
X94131322Y-132076888D01*
X94131324Y-132076889D01*
X94362708Y-132115500D01*
X94362709Y-132115500D01*
X94597291Y-132115500D01*
X94597292Y-132115500D01*
X94828676Y-132076889D01*
X95050548Y-132000720D01*
X95256858Y-131889070D01*
X95441978Y-131744986D01*
X95600857Y-131572398D01*
X95600858Y-131572395D01*
X95600861Y-131572393D01*
X95646191Y-131503009D01*
X95699336Y-131457651D01*
X95768568Y-131448227D01*
X95831904Y-131477728D01*
X95853809Y-131503009D01*
X95899138Y-131572393D01*
X95899143Y-131572398D01*
X96058022Y-131744986D01*
X96243142Y-131889070D01*
X96449452Y-132000720D01*
X96564662Y-132040272D01*
X96671320Y-132076888D01*
X96671322Y-132076888D01*
X96671324Y-132076889D01*
X96902708Y-132115500D01*
X96902709Y-132115500D01*
X97137291Y-132115500D01*
X97137292Y-132115500D01*
X97368676Y-132076889D01*
X97590548Y-132000720D01*
X97796858Y-131889070D01*
X97981978Y-131744986D01*
X98140857Y-131572398D01*
X98140858Y-131572395D01*
X98140861Y-131572393D01*
X98186191Y-131503009D01*
X98239336Y-131457651D01*
X98308568Y-131448227D01*
X98371904Y-131477728D01*
X98393809Y-131503009D01*
X98439138Y-131572393D01*
X98439143Y-131572398D01*
X98598022Y-131744986D01*
X98783142Y-131889070D01*
X98989452Y-132000720D01*
X99104662Y-132040272D01*
X99211320Y-132076888D01*
X99211322Y-132076888D01*
X99211324Y-132076889D01*
X99442708Y-132115500D01*
X99442709Y-132115500D01*
X99677291Y-132115500D01*
X99677292Y-132115500D01*
X99908676Y-132076889D01*
X100130548Y-132000720D01*
X100224298Y-131949985D01*
X102350000Y-131949985D01*
X102360493Y-132052689D01*
X102360494Y-132052696D01*
X102415641Y-132219118D01*
X102415643Y-132219123D01*
X102507684Y-132368344D01*
X102631655Y-132492315D01*
X102780876Y-132584356D01*
X102780881Y-132584358D01*
X102947303Y-132639505D01*
X102947310Y-132639506D01*
X103050014Y-132649999D01*
X103050027Y-132650000D01*
X103750000Y-132650000D01*
X103750000Y-131491683D01*
X103778819Y-131509209D01*
X103924404Y-131550000D01*
X104037622Y-131550000D01*
X104149783Y-131534584D01*
X104250000Y-131491053D01*
X104250000Y-132650000D01*
X104949973Y-132650000D01*
X104949985Y-132649999D01*
X105052689Y-132639506D01*
X105052696Y-132639505D01*
X105219118Y-132584358D01*
X105219123Y-132584356D01*
X105368344Y-132492315D01*
X105492315Y-132368344D01*
X105584356Y-132219123D01*
X105584358Y-132219118D01*
X105639505Y-132052696D01*
X105639506Y-132052689D01*
X105649999Y-131949985D01*
X105650000Y-131949972D01*
X105650000Y-131250000D01*
X104494852Y-131250000D01*
X104543559Y-131112953D01*
X104553877Y-130962114D01*
X104523116Y-130814085D01*
X104489910Y-130750000D01*
X105650000Y-130750000D01*
X105650000Y-130050027D01*
X105649999Y-130050014D01*
X105639506Y-129947310D01*
X105639505Y-129947303D01*
X105584358Y-129780881D01*
X105584356Y-129780876D01*
X105492315Y-129631655D01*
X105368344Y-129507684D01*
X105219123Y-129415643D01*
X105219118Y-129415641D01*
X105052696Y-129360494D01*
X105052689Y-129360493D01*
X104949985Y-129350000D01*
X104250000Y-129350000D01*
X104250000Y-130508316D01*
X104221181Y-130490791D01*
X104075596Y-130450000D01*
X103962378Y-130450000D01*
X103850217Y-130465416D01*
X103750000Y-130508946D01*
X103750000Y-129350000D01*
X103050014Y-129350000D01*
X102947310Y-129360493D01*
X102947303Y-129360494D01*
X102780881Y-129415641D01*
X102780876Y-129415643D01*
X102631655Y-129507684D01*
X102507684Y-129631655D01*
X102415643Y-129780876D01*
X102415641Y-129780881D01*
X102360494Y-129947303D01*
X102360493Y-129947310D01*
X102350000Y-130050014D01*
X102350000Y-130750000D01*
X103505148Y-130750000D01*
X103456441Y-130887047D01*
X103446123Y-131037886D01*
X103476884Y-131185915D01*
X103510090Y-131250000D01*
X102350000Y-131250000D01*
X102350000Y-131949985D01*
X100224298Y-131949985D01*
X100336858Y-131889070D01*
X100521978Y-131744986D01*
X100680857Y-131572398D01*
X100809161Y-131376012D01*
X100903392Y-131161187D01*
X100960979Y-130933782D01*
X100980351Y-130700000D01*
X100972669Y-130607297D01*
X100986749Y-130538863D01*
X101008561Y-130509380D01*
X105200782Y-126317159D01*
X105215569Y-126304530D01*
X105226682Y-126296457D01*
X105272580Y-126245480D01*
X105274782Y-126243159D01*
X105290149Y-126227794D01*
X105303823Y-126210906D01*
X105305874Y-126208504D01*
X105351797Y-126157503D01*
X105358663Y-126145609D01*
X105369677Y-126129583D01*
X105378319Y-126118913D01*
X105409470Y-126057773D01*
X105410995Y-126054967D01*
X105445285Y-125995576D01*
X105445287Y-125995573D01*
X105449527Y-125982522D01*
X105456978Y-125964535D01*
X105463205Y-125952315D01*
X105463207Y-125952308D01*
X105480951Y-125886084D01*
X105481873Y-125882970D01*
X105503067Y-125817744D01*
X105504502Y-125804085D01*
X105508048Y-125784958D01*
X105511600Y-125771703D01*
X105515188Y-125703216D01*
X105515441Y-125700007D01*
X105517712Y-125678408D01*
X105517712Y-125656703D01*
X105517797Y-125653457D01*
X105521386Y-125584978D01*
X105519239Y-125571422D01*
X105517712Y-125552023D01*
X105517712Y-100707975D01*
X105519239Y-100688575D01*
X105521386Y-100675021D01*
X105517797Y-100606539D01*
X105517712Y-100603294D01*
X105517712Y-100581591D01*
X105515968Y-100565008D01*
X105515441Y-100559995D01*
X105515188Y-100556774D01*
X105515026Y-100553673D01*
X105511600Y-100488296D01*
X105508047Y-100475040D01*
X105504501Y-100455910D01*
X105503067Y-100442256D01*
X105481868Y-100377012D01*
X105480956Y-100373931D01*
X105473878Y-100347517D01*
X105466263Y-100319097D01*
X105463207Y-100307690D01*
X105463206Y-100307689D01*
X105463206Y-100307687D01*
X105456972Y-100295453D01*
X105449525Y-100277472D01*
X105445288Y-100264430D01*
X105445287Y-100264429D01*
X105445287Y-100264427D01*
X105410997Y-100205035D01*
X105409452Y-100202189D01*
X105388556Y-100161179D01*
X105378318Y-100141086D01*
X105369677Y-100130416D01*
X105358664Y-100114391D01*
X105351797Y-100102497D01*
X105305897Y-100051520D01*
X105303814Y-100049082D01*
X105290148Y-100032205D01*
X105274808Y-100016865D01*
X105272573Y-100014510D01*
X105226682Y-99963543D01*
X105226680Y-99963541D01*
X105215570Y-99955469D01*
X105200777Y-99942834D01*
X104467097Y-99209154D01*
X104433612Y-99147831D01*
X104431202Y-99111236D01*
X104440420Y-99000000D01*
X104440419Y-98999993D01*
X104420776Y-98762922D01*
X104420774Y-98762911D01*
X104395178Y-98661836D01*
X104362374Y-98532296D01*
X104266812Y-98314436D01*
X104265090Y-98311801D01*
X104176329Y-98175942D01*
X104136694Y-98115276D01*
X103975570Y-97940249D01*
X103975569Y-97940248D01*
X103975567Y-97940246D01*
X103975563Y-97940243D01*
X103787843Y-97794134D01*
X103787837Y-97794130D01*
X103578611Y-97680902D01*
X103578602Y-97680899D01*
X103353604Y-97603656D01*
X103118949Y-97564500D01*
X102881051Y-97564500D01*
X102646395Y-97603656D01*
X102421397Y-97680899D01*
X102421388Y-97680902D01*
X102212162Y-97794130D01*
X102212156Y-97794134D01*
X102024436Y-97940243D01*
X102024431Y-97940247D01*
X101962382Y-98007650D01*
X101902494Y-98043640D01*
X101832656Y-98041539D01*
X101783472Y-98011347D01*
X100159306Y-96387181D01*
X100125821Y-96325858D01*
X100130805Y-96256166D01*
X100172677Y-96200233D01*
X100238141Y-96175816D01*
X100246987Y-96175500D01*
X101180881Y-96175500D01*
X101180886Y-96175500D01*
X101229601Y-96172598D01*
X101394541Y-96136717D01*
X101441491Y-96126504D01*
X101441493Y-96126503D01*
X101441499Y-96126502D01*
X101441503Y-96126500D01*
X101441507Y-96126499D01*
X101569697Y-96071605D01*
X101640845Y-96041138D01*
X101820432Y-95919589D01*
X101973771Y-95766250D01*
X102095320Y-95586663D01*
X102147528Y-95464744D01*
X102180681Y-95387325D01*
X102180682Y-95387321D01*
X102180684Y-95387317D01*
X102183283Y-95375372D01*
X102197967Y-95307868D01*
X102226780Y-95175419D01*
X102229682Y-95126704D01*
X102229682Y-94033191D01*
X102249367Y-93966152D01*
X102302171Y-93920397D01*
X102353682Y-93909191D01*
X102564690Y-93909191D01*
X102631729Y-93928876D01*
X102677484Y-93981680D01*
X102688308Y-94023462D01*
X102691102Y-94058972D01*
X102691102Y-94058975D01*
X102691103Y-94058976D01*
X102739280Y-94238773D01*
X102761014Y-94281430D01*
X102823782Y-94404622D01*
X102859928Y-94449258D01*
X102940927Y-94549283D01*
X103038516Y-94628309D01*
X103085587Y-94666427D01*
X103140552Y-94694432D01*
X103251437Y-94750930D01*
X103431234Y-94799107D01*
X103477617Y-94802757D01*
X103508537Y-94805191D01*
X103508539Y-94805191D01*
X105432501Y-94805191D01*
X105458267Y-94803163D01*
X105509804Y-94799107D01*
X105689601Y-94750930D01*
X105815980Y-94686537D01*
X105855450Y-94666427D01*
X105855451Y-94666425D01*
X105855453Y-94666425D01*
X106000111Y-94549283D01*
X106117253Y-94404625D01*
X106201758Y-94238773D01*
X106249935Y-94058976D01*
X106256019Y-93981671D01*
X106256019Y-92057711D01*
X106249935Y-91980406D01*
X106201758Y-91800609D01*
X106159099Y-91716886D01*
X106117255Y-91634759D01*
X106084971Y-91594892D01*
X106000111Y-91490099D01*
X105915249Y-91421379D01*
X105855450Y-91372954D01*
X105732258Y-91310186D01*
X105689601Y-91288452D01*
X105509804Y-91240275D01*
X105509803Y-91240274D01*
X105509800Y-91240274D01*
X105432501Y-91234191D01*
X105432499Y-91234191D01*
X103508539Y-91234191D01*
X103508537Y-91234191D01*
X103431237Y-91240274D01*
X103251437Y-91288452D01*
X103085587Y-91372954D01*
X102940927Y-91490099D01*
X102823782Y-91634759D01*
X102739280Y-91800609D01*
X102691102Y-91980409D01*
X102688308Y-92015920D01*
X102663424Y-92081208D01*
X102607193Y-92122679D01*
X102564690Y-92130191D01*
X102353682Y-92130191D01*
X102286643Y-92110506D01*
X102240888Y-92057702D01*
X102229682Y-92006191D01*
X102229682Y-90873301D01*
X102229682Y-90873296D01*
X102226780Y-90824581D01*
X102193517Y-90671674D01*
X102180686Y-90612690D01*
X102180681Y-90612674D01*
X102095324Y-90413346D01*
X102095323Y-90413344D01*
X102095320Y-90413337D01*
X101973771Y-90233750D01*
X101973769Y-90233747D01*
X101952203Y-90212181D01*
X101918718Y-90150858D01*
X101923702Y-90081166D01*
X101965574Y-90025233D01*
X102031038Y-90000816D01*
X102039884Y-90000500D01*
X158875500Y-90000500D01*
X158942539Y-90020185D01*
X158988294Y-90072989D01*
X158999500Y-90124500D01*
X158999500Y-136875500D01*
X158979815Y-136942539D01*
X158927011Y-136988294D01*
X158875500Y-136999500D01*
X46124500Y-136999500D01*
X46057461Y-136979815D01*
X46011706Y-136927011D01*
X46000500Y-136875500D01*
X46000500Y-90124500D01*
X46020185Y-90057461D01*
X46072989Y-90011706D01*
X46124500Y-90000500D01*
X51087157Y-90000500D01*
X51154196Y-90020185D01*
G37*
%TD.AperFunction*%
%TA.AperFunction,Conductor*%
G36*
X103658046Y-109702410D02*
G01*
X103713979Y-109744282D01*
X103738396Y-109809746D01*
X103738712Y-109818592D01*
X103738712Y-125211982D01*
X103719027Y-125279021D01*
X103702393Y-125299663D01*
X99753875Y-129248181D01*
X99692552Y-129281666D01*
X99666194Y-129284500D01*
X99442708Y-129284500D01*
X99425725Y-129287334D01*
X99211320Y-129323111D01*
X98989459Y-129399277D01*
X98989451Y-129399280D01*
X98783139Y-129510931D01*
X98685079Y-129587255D01*
X98598022Y-129655014D01*
X98598019Y-129655016D01*
X98598019Y-129655017D01*
X98439140Y-129827604D01*
X98393809Y-129896991D01*
X98340663Y-129942348D01*
X98271432Y-129951772D01*
X98208096Y-129922270D01*
X98186191Y-129896991D01*
X98140859Y-129827604D01*
X98097847Y-129780881D01*
X97981978Y-129655014D01*
X97818024Y-129527404D01*
X97796860Y-129510931D01*
X97590548Y-129399280D01*
X97590540Y-129399277D01*
X97368679Y-129323111D01*
X97154275Y-129287334D01*
X97137292Y-129284500D01*
X96902708Y-129284500D01*
X96885725Y-129287334D01*
X96671320Y-129323111D01*
X96449459Y-129399277D01*
X96449451Y-129399280D01*
X96243139Y-129510931D01*
X96145079Y-129587255D01*
X96058022Y-129655014D01*
X96058019Y-129655016D01*
X96058019Y-129655017D01*
X95899140Y-129827604D01*
X95853809Y-129896991D01*
X95800663Y-129942348D01*
X95731432Y-129951772D01*
X95668096Y-129922270D01*
X95646191Y-129896991D01*
X95600859Y-129827604D01*
X95557847Y-129780881D01*
X95441978Y-129655014D01*
X95278024Y-129527404D01*
X95256860Y-129510931D01*
X95050548Y-129399280D01*
X95050540Y-129399277D01*
X94828679Y-129323111D01*
X94614275Y-129287334D01*
X94597292Y-129284500D01*
X94362708Y-129284500D01*
X94345725Y-129287334D01*
X94131320Y-129323111D01*
X93909459Y-129399277D01*
X93909451Y-129399280D01*
X93703139Y-129510931D01*
X93605079Y-129587255D01*
X93518022Y-129655014D01*
X93518019Y-129655016D01*
X93518019Y-129655017D01*
X93359140Y-129827604D01*
X93313809Y-129896991D01*
X93260663Y-129942348D01*
X93191432Y-129951772D01*
X93128096Y-129922270D01*
X93106191Y-129896991D01*
X93060859Y-129827604D01*
X93017847Y-129780881D01*
X92901978Y-129655014D01*
X92738024Y-129527404D01*
X92716860Y-129510931D01*
X92510548Y-129399280D01*
X92510540Y-129399277D01*
X92288679Y-129323111D01*
X92074275Y-129287334D01*
X92057292Y-129284500D01*
X91822708Y-129284500D01*
X91805725Y-129287334D01*
X91591320Y-129323111D01*
X91369459Y-129399277D01*
X91369451Y-129399280D01*
X91163139Y-129510931D01*
X91065079Y-129587255D01*
X90978022Y-129655014D01*
X90978019Y-129655016D01*
X90978019Y-129655017D01*
X90819140Y-129827604D01*
X90773809Y-129896991D01*
X90720663Y-129942348D01*
X90651432Y-129951772D01*
X90588096Y-129922270D01*
X90566191Y-129896991D01*
X90520859Y-129827604D01*
X90477847Y-129780881D01*
X90361978Y-129655014D01*
X90198024Y-129527404D01*
X90176860Y-129510931D01*
X89970548Y-129399280D01*
X89970540Y-129399277D01*
X89748679Y-129323111D01*
X89534275Y-129287334D01*
X89517292Y-129284500D01*
X89282708Y-129284500D01*
X89265725Y-129287334D01*
X89051320Y-129323111D01*
X88829459Y-129399277D01*
X88829451Y-129399280D01*
X88623139Y-129510931D01*
X88525079Y-129587255D01*
X88438022Y-129655014D01*
X88438019Y-129655016D01*
X88438019Y-129655017D01*
X88279140Y-129827604D01*
X88153783Y-130019481D01*
X88100637Y-130064838D01*
X88031406Y-130074262D01*
X87968070Y-130044760D01*
X87948399Y-130022784D01*
X87924664Y-129988887D01*
X87360559Y-130552991D01*
X87354582Y-130524225D01*
X87288819Y-130397307D01*
X87191251Y-130292838D01*
X87069116Y-130218566D01*
X87005660Y-130200786D01*
X87571111Y-129635334D01*
X87502444Y-129587253D01*
X87299459Y-129492600D01*
X87299450Y-129492596D01*
X87083124Y-129434632D01*
X87083113Y-129434630D01*
X86860002Y-129415111D01*
X86859998Y-129415111D01*
X86636886Y-129434630D01*
X86636875Y-129434632D01*
X86420549Y-129492596D01*
X86420540Y-129492600D01*
X86217552Y-129587255D01*
X86148888Y-129635333D01*
X86148887Y-129635334D01*
X86711235Y-130197681D01*
X86587276Y-130251525D01*
X86476392Y-130341735D01*
X86393959Y-130458517D01*
X86360135Y-130553688D01*
X85795334Y-129988887D01*
X85795332Y-129988888D01*
X85771599Y-130022783D01*
X85717022Y-130066408D01*
X85647524Y-130073600D01*
X85585169Y-130042077D01*
X85566216Y-130019480D01*
X85440859Y-129827604D01*
X85397847Y-129780881D01*
X85281978Y-129655014D01*
X85118024Y-129527404D01*
X85096860Y-129510931D01*
X84890548Y-129399280D01*
X84890540Y-129399277D01*
X84668679Y-129323111D01*
X84454275Y-129287334D01*
X84437292Y-129284500D01*
X84202708Y-129284500D01*
X84185725Y-129287334D01*
X83971320Y-129323111D01*
X83749459Y-129399277D01*
X83749451Y-129399280D01*
X83543139Y-129510931D01*
X83445079Y-129587255D01*
X83358022Y-129655014D01*
X83358019Y-129655016D01*
X83358019Y-129655017D01*
X83199140Y-129827604D01*
X83153809Y-129896991D01*
X83100663Y-129942348D01*
X83031432Y-129951772D01*
X82968096Y-129922270D01*
X82946191Y-129896991D01*
X82900859Y-129827604D01*
X82857847Y-129780881D01*
X82741978Y-129655014D01*
X82578024Y-129527404D01*
X82556860Y-129510931D01*
X82350548Y-129399280D01*
X82350540Y-129399277D01*
X82128679Y-129323111D01*
X81914275Y-129287334D01*
X81897292Y-129284500D01*
X81662708Y-129284500D01*
X81645725Y-129287334D01*
X81431320Y-129323111D01*
X81209459Y-129399277D01*
X81209451Y-129399280D01*
X81003139Y-129510931D01*
X80905079Y-129587255D01*
X80818022Y-129655014D01*
X80818019Y-129655016D01*
X80818019Y-129655017D01*
X80659140Y-129827604D01*
X80613809Y-129896991D01*
X80560663Y-129942348D01*
X80491432Y-129951772D01*
X80428096Y-129922270D01*
X80406191Y-129896991D01*
X80360859Y-129827604D01*
X80317847Y-129780881D01*
X80201978Y-129655014D01*
X80038024Y-129527404D01*
X80016860Y-129510931D01*
X79810548Y-129399280D01*
X79810540Y-129399277D01*
X79588679Y-129323111D01*
X79374275Y-129287334D01*
X79357292Y-129284500D01*
X79122708Y-129284500D01*
X79105725Y-129287334D01*
X78891320Y-129323111D01*
X78669459Y-129399277D01*
X78669451Y-129399280D01*
X78463139Y-129510931D01*
X78365079Y-129587255D01*
X78278022Y-129655014D01*
X78278019Y-129655016D01*
X78278019Y-129655017D01*
X78119140Y-129827604D01*
X78073809Y-129896991D01*
X78020663Y-129942348D01*
X77951432Y-129951772D01*
X77888096Y-129922270D01*
X77866191Y-129896991D01*
X77820859Y-129827604D01*
X77777847Y-129780881D01*
X77661978Y-129655014D01*
X77498024Y-129527404D01*
X77476860Y-129510931D01*
X77270548Y-129399280D01*
X77270540Y-129399277D01*
X77048679Y-129323111D01*
X76834275Y-129287334D01*
X76817292Y-129284500D01*
X76582708Y-129284500D01*
X76565725Y-129287334D01*
X76351320Y-129323111D01*
X76129459Y-129399277D01*
X76129451Y-129399280D01*
X75923139Y-129510931D01*
X75825079Y-129587255D01*
X75738022Y-129655014D01*
X75738019Y-129655016D01*
X75738019Y-129655017D01*
X75579140Y-129827604D01*
X75533809Y-129896991D01*
X75480663Y-129942348D01*
X75411432Y-129951772D01*
X75348096Y-129922270D01*
X75326191Y-129896991D01*
X75280859Y-129827604D01*
X75237847Y-129780881D01*
X75121978Y-129655014D01*
X74958024Y-129527404D01*
X74936860Y-129510931D01*
X74730548Y-129399280D01*
X74730540Y-129399277D01*
X74508679Y-129323111D01*
X74294275Y-129287334D01*
X74277292Y-129284500D01*
X74042708Y-129284500D01*
X74025725Y-129287334D01*
X73811320Y-129323111D01*
X73589459Y-129399277D01*
X73589451Y-129399280D01*
X73383139Y-129510931D01*
X73285079Y-129587255D01*
X73198022Y-129655014D01*
X73198019Y-129655016D01*
X73198019Y-129655017D01*
X73039140Y-129827604D01*
X72993809Y-129896991D01*
X72940663Y-129942348D01*
X72871432Y-129951772D01*
X72808096Y-129922270D01*
X72786191Y-129896991D01*
X72740859Y-129827604D01*
X72697847Y-129780881D01*
X72581978Y-129655014D01*
X72418024Y-129527404D01*
X72396860Y-129510931D01*
X72190548Y-129399280D01*
X72190540Y-129399277D01*
X71968679Y-129323111D01*
X71754275Y-129287334D01*
X71737292Y-129284500D01*
X71502708Y-129284500D01*
X71485725Y-129287334D01*
X71271320Y-129323111D01*
X71049459Y-129399277D01*
X71049451Y-129399280D01*
X70843139Y-129510931D01*
X70745079Y-129587255D01*
X70658022Y-129655014D01*
X70658019Y-129655016D01*
X70658019Y-129655017D01*
X70499140Y-129827604D01*
X70453809Y-129896991D01*
X70400663Y-129942348D01*
X70331432Y-129951772D01*
X70268096Y-129922270D01*
X70246191Y-129896991D01*
X70200859Y-129827604D01*
X70157847Y-129780881D01*
X70041978Y-129655014D01*
X69878024Y-129527404D01*
X69856860Y-129510931D01*
X69650548Y-129399280D01*
X69650540Y-129399277D01*
X69428679Y-129323111D01*
X69214275Y-129287334D01*
X69197292Y-129284500D01*
X68962708Y-129284500D01*
X68945725Y-129287334D01*
X68731320Y-129323111D01*
X68509459Y-129399277D01*
X68509451Y-129399280D01*
X68303139Y-129510931D01*
X68205079Y-129587255D01*
X68118022Y-129655014D01*
X68118019Y-129655016D01*
X68118019Y-129655017D01*
X67959140Y-129827604D01*
X67913809Y-129896991D01*
X67860663Y-129942348D01*
X67791432Y-129951772D01*
X67728096Y-129922270D01*
X67706191Y-129896991D01*
X67660859Y-129827604D01*
X67617847Y-129780881D01*
X67501978Y-129655014D01*
X67338024Y-129527404D01*
X67316860Y-129510931D01*
X67110548Y-129399280D01*
X67110540Y-129399277D01*
X66888679Y-129323111D01*
X66674275Y-129287334D01*
X66657292Y-129284500D01*
X66422708Y-129284500D01*
X66405725Y-129287334D01*
X66191320Y-129323111D01*
X65969459Y-129399277D01*
X65969451Y-129399280D01*
X65763139Y-129510931D01*
X65665079Y-129587255D01*
X65578022Y-129655014D01*
X65578019Y-129655016D01*
X65578019Y-129655017D01*
X65419140Y-129827604D01*
X65373809Y-129896991D01*
X65320663Y-129942348D01*
X65251432Y-129951772D01*
X65188096Y-129922270D01*
X65166191Y-129896991D01*
X65120859Y-129827604D01*
X65077847Y-129780881D01*
X64961978Y-129655014D01*
X64798024Y-129527404D01*
X64776860Y-129510931D01*
X64570548Y-129399280D01*
X64570540Y-129399277D01*
X64348679Y-129323111D01*
X64134275Y-129287334D01*
X64117292Y-129284500D01*
X63882708Y-129284500D01*
X63865725Y-129287334D01*
X63651320Y-129323111D01*
X63429459Y-129399277D01*
X63429451Y-129399280D01*
X63223139Y-129510931D01*
X63125079Y-129587255D01*
X63038022Y-129655014D01*
X63038019Y-129655016D01*
X63038019Y-129655017D01*
X62879140Y-129827604D01*
X62833809Y-129896991D01*
X62780663Y-129942348D01*
X62711432Y-129951772D01*
X62648096Y-129922270D01*
X62626191Y-129896991D01*
X62580859Y-129827604D01*
X62537847Y-129780881D01*
X62421978Y-129655014D01*
X62258024Y-129527404D01*
X62236860Y-129510931D01*
X62030548Y-129399280D01*
X62030540Y-129399277D01*
X61808679Y-129323111D01*
X61594275Y-129287334D01*
X61577292Y-129284500D01*
X61342708Y-129284500D01*
X61325725Y-129287334D01*
X61111320Y-129323111D01*
X60889459Y-129399277D01*
X60889451Y-129399280D01*
X60683139Y-129510931D01*
X60585079Y-129587255D01*
X60498022Y-129655014D01*
X60498019Y-129655016D01*
X60498019Y-129655017D01*
X60339140Y-129827604D01*
X60293809Y-129896991D01*
X60240663Y-129942348D01*
X60171432Y-129951772D01*
X60108096Y-129922270D01*
X60086191Y-129896991D01*
X60040859Y-129827604D01*
X59997847Y-129780881D01*
X59881978Y-129655014D01*
X59718024Y-129527404D01*
X59696860Y-129510931D01*
X59490548Y-129399280D01*
X59490540Y-129399277D01*
X59268680Y-129323111D01*
X59168764Y-129306438D01*
X59105879Y-129275987D01*
X59069440Y-129216372D01*
X59071016Y-129146520D01*
X59101492Y-129096450D01*
X60272124Y-127925819D01*
X60333447Y-127892334D01*
X60359805Y-127889500D01*
X84920236Y-127889500D01*
X84939633Y-127891026D01*
X84953190Y-127893174D01*
X85021678Y-127889584D01*
X85024922Y-127889500D01*
X85046615Y-127889500D01*
X85046620Y-127889500D01*
X85068240Y-127887226D01*
X85071392Y-127886978D01*
X85139915Y-127883389D01*
X85153182Y-127879833D01*
X85172304Y-127876289D01*
X85185956Y-127874855D01*
X85251174Y-127853663D01*
X85254259Y-127852749D01*
X85320524Y-127834994D01*
X85332754Y-127828761D01*
X85350729Y-127821316D01*
X85363785Y-127817075D01*
X85423185Y-127782779D01*
X85425989Y-127781255D01*
X85487125Y-127750107D01*
X85497787Y-127741471D01*
X85513821Y-127730450D01*
X85525715Y-127723585D01*
X85576716Y-127677662D01*
X85579118Y-127675611D01*
X85596006Y-127661937D01*
X85611371Y-127646570D01*
X85613692Y-127644368D01*
X85664669Y-127598470D01*
X85672742Y-127587357D01*
X85685371Y-127572570D01*
X103527031Y-109730911D01*
X103588354Y-109697426D01*
X103658046Y-109702410D01*
G37*
%TD.AperFunction*%
%TA.AperFunction,Conductor*%
G36*
X86829703Y-94988954D02*
G01*
X86855232Y-95019546D01*
X86868863Y-95042595D01*
X86868869Y-95042603D01*
X86982396Y-95156130D01*
X86982400Y-95156133D01*
X86982402Y-95156135D01*
X87120607Y-95237869D01*
X87161268Y-95249682D01*
X87274791Y-95282664D01*
X87274794Y-95282664D01*
X87274796Y-95282665D01*
X87282547Y-95283275D01*
X87310817Y-95285500D01*
X87310818Y-95285499D01*
X87310819Y-95285500D01*
X89239180Y-95285499D01*
X89275204Y-95282665D01*
X89429393Y-95237869D01*
X89543310Y-95170498D01*
X89611029Y-95153317D01*
X89677292Y-95175477D01*
X89694108Y-95189551D01*
X91914181Y-97409624D01*
X91947666Y-97470947D01*
X91950500Y-97497305D01*
X91950500Y-97812638D01*
X91930815Y-97879677D01*
X91902663Y-97910491D01*
X91864432Y-97940247D01*
X91703307Y-98115274D01*
X91703304Y-98115278D01*
X91573188Y-98314434D01*
X91477625Y-98532297D01*
X91419225Y-98762911D01*
X91419223Y-98762922D01*
X91399580Y-98999993D01*
X91399580Y-99000006D01*
X91419223Y-99237077D01*
X91419225Y-99237088D01*
X91477625Y-99467702D01*
X91573188Y-99685565D01*
X91701004Y-99881200D01*
X91703306Y-99884724D01*
X91768431Y-99955469D01*
X91864432Y-100059753D01*
X91864436Y-100059756D01*
X92052156Y-100205865D01*
X92052162Y-100205869D01*
X92052165Y-100205871D01*
X92261390Y-100319098D01*
X92486398Y-100396344D01*
X92721051Y-100435500D01*
X92958949Y-100435500D01*
X93193602Y-100396344D01*
X93418610Y-100319098D01*
X93627835Y-100205871D01*
X93630715Y-100203630D01*
X93735804Y-100121835D01*
X93815570Y-100059751D01*
X93976694Y-99884724D01*
X94106812Y-99685564D01*
X94202374Y-99467704D01*
X94260775Y-99237085D01*
X94261249Y-99231364D01*
X94280420Y-99000006D01*
X94280420Y-98999993D01*
X94260776Y-98762922D01*
X94260774Y-98762911D01*
X94235178Y-98661836D01*
X94202374Y-98532296D01*
X94106812Y-98314436D01*
X94105090Y-98311801D01*
X94016329Y-98175942D01*
X93976694Y-98115276D01*
X93815570Y-97940249D01*
X93777337Y-97910491D01*
X93736524Y-97853781D01*
X93729500Y-97812638D01*
X93729500Y-97286805D01*
X93749185Y-97219766D01*
X93801989Y-97174011D01*
X93871147Y-97164067D01*
X93934703Y-97193092D01*
X93941181Y-97199124D01*
X96314622Y-99572565D01*
X96327257Y-99587358D01*
X96335329Y-99598468D01*
X96335331Y-99598470D01*
X96386298Y-99644361D01*
X96388653Y-99646596D01*
X96403994Y-99661937D01*
X96420877Y-99675608D01*
X96423307Y-99677684D01*
X96452797Y-99704237D01*
X96474287Y-99723587D01*
X96486170Y-99730447D01*
X96502211Y-99741471D01*
X96512871Y-99750104D01*
X96573972Y-99781237D01*
X96576825Y-99782786D01*
X96636209Y-99817072D01*
X96636215Y-99817075D01*
X96649267Y-99821316D01*
X96667242Y-99828761D01*
X96679475Y-99834994D01*
X96745726Y-99852745D01*
X96748807Y-99853658D01*
X96814044Y-99874855D01*
X96827702Y-99876290D01*
X96846822Y-99879834D01*
X96860085Y-99883388D01*
X96928567Y-99886976D01*
X96931785Y-99887229D01*
X96949014Y-99889041D01*
X96953379Y-99889500D01*
X96953380Y-99889500D01*
X96975084Y-99889500D01*
X96978327Y-99889584D01*
X97046810Y-99893174D01*
X97060366Y-99891026D01*
X97079764Y-99889500D01*
X98580195Y-99889500D01*
X98647234Y-99909185D01*
X98667876Y-99925819D01*
X102074181Y-103332124D01*
X102107666Y-103393447D01*
X102110500Y-103419805D01*
X102110500Y-108580195D01*
X102090815Y-108647234D01*
X102074181Y-108667876D01*
X84667876Y-126074181D01*
X84606553Y-126107666D01*
X84580195Y-126110500D01*
X60359805Y-126110500D01*
X60292766Y-126090815D01*
X60272124Y-126074181D01*
X49925819Y-115727876D01*
X49892334Y-115666553D01*
X49889500Y-115640195D01*
X49889500Y-100749999D01*
X50721127Y-100749999D01*
X50721128Y-100750000D01*
X51684314Y-100750000D01*
X51672359Y-100761955D01*
X51614835Y-100874852D01*
X51595014Y-101000000D01*
X51614835Y-101125148D01*
X51672359Y-101238045D01*
X51684314Y-101250000D01*
X50721128Y-101250000D01*
X50773730Y-101446317D01*
X50773734Y-101446326D01*
X50869865Y-101652482D01*
X51000342Y-101838820D01*
X51161179Y-101999657D01*
X51347517Y-102130134D01*
X51553673Y-102226265D01*
X51553682Y-102226269D01*
X51749999Y-102278872D01*
X51750000Y-102278871D01*
X51750000Y-101315686D01*
X51761955Y-101327641D01*
X51874852Y-101385165D01*
X51968519Y-101400000D01*
X52031481Y-101400000D01*
X52125148Y-101385165D01*
X52238045Y-101327641D01*
X52250000Y-101315686D01*
X52250000Y-102278872D01*
X52446317Y-102226269D01*
X52446326Y-102226265D01*
X52652482Y-102130134D01*
X52838820Y-101999657D01*
X52999657Y-101838820D01*
X53130134Y-101652482D01*
X53226265Y-101446326D01*
X53226269Y-101446317D01*
X53278872Y-101250000D01*
X52315686Y-101250000D01*
X52327641Y-101238045D01*
X52385165Y-101125148D01*
X52404986Y-101000000D01*
X52385165Y-100874852D01*
X52327641Y-100761955D01*
X52315686Y-100750000D01*
X53278872Y-100750000D01*
X53278872Y-100749999D01*
X53226269Y-100553682D01*
X53226265Y-100553673D01*
X53130134Y-100347517D01*
X52999657Y-100161179D01*
X52838820Y-100000342D01*
X52652482Y-99869865D01*
X52446328Y-99773734D01*
X52250000Y-99721127D01*
X52250000Y-100684314D01*
X52238045Y-100672359D01*
X52125148Y-100614835D01*
X52031481Y-100600000D01*
X51968519Y-100600000D01*
X51874852Y-100614835D01*
X51761955Y-100672359D01*
X51750000Y-100684314D01*
X51750000Y-99721127D01*
X51553671Y-99773734D01*
X51347517Y-99869865D01*
X51161179Y-100000342D01*
X51000342Y-100161179D01*
X50869865Y-100347517D01*
X50773734Y-100553673D01*
X50773730Y-100553682D01*
X50721127Y-100749999D01*
X49889500Y-100749999D01*
X49889500Y-96480555D01*
X49909185Y-96413516D01*
X49925819Y-96392874D01*
X50515494Y-95803199D01*
X51119898Y-95198794D01*
X51181219Y-95165311D01*
X51250911Y-95170295D01*
X51277075Y-95183783D01*
X51430196Y-95287418D01*
X51430200Y-95287419D01*
X51430202Y-95287421D01*
X51445141Y-95293818D01*
X51621707Y-95369428D01*
X51825278Y-95413712D01*
X51872079Y-95416500D01*
X52949420Y-95416499D01*
X52996222Y-95413712D01*
X53199728Y-95369442D01*
X53269420Y-95374426D01*
X53325353Y-95416298D01*
X53349770Y-95481762D01*
X53334918Y-95550035D01*
X53313767Y-95578289D01*
X52342858Y-96549197D01*
X52281535Y-96582682D01*
X52234769Y-96583825D01*
X52118949Y-96564500D01*
X51881051Y-96564500D01*
X51646395Y-96603656D01*
X51421397Y-96680899D01*
X51421388Y-96680902D01*
X51212162Y-96794130D01*
X51212156Y-96794134D01*
X51024436Y-96940243D01*
X51024432Y-96940246D01*
X50863307Y-97115274D01*
X50863304Y-97115278D01*
X50733188Y-97314434D01*
X50637625Y-97532297D01*
X50579225Y-97762911D01*
X50579223Y-97762922D01*
X50559580Y-97999993D01*
X50559580Y-98000006D01*
X50579223Y-98237077D01*
X50579225Y-98237088D01*
X50637625Y-98467702D01*
X50733188Y-98685565D01*
X50863304Y-98884721D01*
X50863306Y-98884724D01*
X50969109Y-98999657D01*
X51024432Y-99059753D01*
X51024436Y-99059756D01*
X51212156Y-99205865D01*
X51212162Y-99205869D01*
X51212165Y-99205871D01*
X51421390Y-99319098D01*
X51621251Y-99387711D01*
X51639727Y-99394054D01*
X51646398Y-99396344D01*
X51881051Y-99435500D01*
X52118949Y-99435500D01*
X52353602Y-99396344D01*
X52578610Y-99319098D01*
X52787835Y-99205871D01*
X52790955Y-99203443D01*
X52900990Y-99117799D01*
X52975570Y-99059751D01*
X53136694Y-98884724D01*
X53266812Y-98685564D01*
X53362374Y-98467704D01*
X53420775Y-98237085D01*
X53439600Y-98009884D01*
X53464754Y-97944702D01*
X53475488Y-97932453D01*
X53987322Y-97420620D01*
X54048641Y-97387138D01*
X54118333Y-97392122D01*
X54162680Y-97420623D01*
X55454181Y-98712124D01*
X55487666Y-98773447D01*
X55490500Y-98799805D01*
X55490500Y-104137982D01*
X55470815Y-104205021D01*
X55442663Y-104235835D01*
X55418024Y-104255012D01*
X55259140Y-104427604D01*
X55133783Y-104619481D01*
X55080637Y-104664838D01*
X55011406Y-104674262D01*
X54948070Y-104644760D01*
X54928399Y-104622784D01*
X54904664Y-104588887D01*
X54340559Y-105152991D01*
X54334582Y-105124225D01*
X54268819Y-104997307D01*
X54171251Y-104892838D01*
X54049116Y-104818566D01*
X53985660Y-104800786D01*
X54551111Y-104235334D01*
X54482444Y-104187253D01*
X54279459Y-104092600D01*
X54279450Y-104092596D01*
X54063124Y-104034632D01*
X54063113Y-104034630D01*
X53840002Y-104015111D01*
X53839998Y-104015111D01*
X53616886Y-104034630D01*
X53616875Y-104034632D01*
X53400549Y-104092596D01*
X53400540Y-104092600D01*
X53197552Y-104187255D01*
X53128888Y-104235333D01*
X53128887Y-104235334D01*
X53691235Y-104797681D01*
X53567276Y-104851525D01*
X53456392Y-104941735D01*
X53373959Y-105058517D01*
X53340135Y-105153688D01*
X52775334Y-104588887D01*
X52775333Y-104588888D01*
X52727255Y-104657552D01*
X52632600Y-104860540D01*
X52632596Y-104860549D01*
X52574632Y-105076875D01*
X52574630Y-105076886D01*
X52555111Y-105299997D01*
X52555111Y-105300002D01*
X52574630Y-105523113D01*
X52574632Y-105523124D01*
X52632596Y-105739450D01*
X52632600Y-105739459D01*
X52727253Y-105942444D01*
X52775334Y-106011111D01*
X53339439Y-105447006D01*
X53345418Y-105475775D01*
X53411181Y-105602693D01*
X53508749Y-105707162D01*
X53630884Y-105781434D01*
X53694339Y-105799213D01*
X53128887Y-106364665D01*
X53197548Y-106412742D01*
X53197554Y-106412746D01*
X53400540Y-106507399D01*
X53400549Y-106507403D01*
X53616875Y-106565367D01*
X53616886Y-106565369D01*
X53839998Y-106584889D01*
X53840002Y-106584889D01*
X54063113Y-106565369D01*
X54063124Y-106565367D01*
X54279450Y-106507403D01*
X54279464Y-106507398D01*
X54482440Y-106412749D01*
X54551110Y-106364664D01*
X53988765Y-105802318D01*
X54112724Y-105748475D01*
X54223608Y-105658265D01*
X54306041Y-105541483D01*
X54339864Y-105446311D01*
X54904664Y-106011110D01*
X54928398Y-105977215D01*
X54982975Y-105933590D01*
X55052474Y-105926398D01*
X55114828Y-105957920D01*
X55133782Y-105980518D01*
X55259140Y-106172395D01*
X55259143Y-106172398D01*
X55418022Y-106344986D01*
X55603142Y-106489070D01*
X55809452Y-106600720D01*
X55924662Y-106640272D01*
X56031320Y-106676888D01*
X56031322Y-106676888D01*
X56031324Y-106676889D01*
X56262708Y-106715500D01*
X56262709Y-106715500D01*
X56497291Y-106715500D01*
X56497292Y-106715500D01*
X56728676Y-106676889D01*
X56950548Y-106600720D01*
X57156858Y-106489070D01*
X57341978Y-106344986D01*
X57500857Y-106172398D01*
X57500858Y-106172395D01*
X57500861Y-106172393D01*
X57546191Y-106103009D01*
X57599336Y-106057651D01*
X57668568Y-106048227D01*
X57731904Y-106077728D01*
X57753809Y-106103009D01*
X57799138Y-106172393D01*
X57799143Y-106172398D01*
X57958022Y-106344986D01*
X58143142Y-106489070D01*
X58349452Y-106600720D01*
X58464662Y-106640272D01*
X58571320Y-106676888D01*
X58571322Y-106676888D01*
X58571324Y-106676889D01*
X58802708Y-106715500D01*
X58802709Y-106715500D01*
X59037291Y-106715500D01*
X59037292Y-106715500D01*
X59268676Y-106676889D01*
X59490548Y-106600720D01*
X59696858Y-106489070D01*
X59881978Y-106344986D01*
X60040857Y-106172398D01*
X60040858Y-106172395D01*
X60040861Y-106172393D01*
X60086191Y-106103009D01*
X60139336Y-106057651D01*
X60208568Y-106048227D01*
X60271904Y-106077728D01*
X60293809Y-106103009D01*
X60339138Y-106172393D01*
X60339143Y-106172398D01*
X60498022Y-106344986D01*
X60683142Y-106489070D01*
X60889452Y-106600720D01*
X61004662Y-106640272D01*
X61111320Y-106676888D01*
X61111322Y-106676888D01*
X61111324Y-106676889D01*
X61342708Y-106715500D01*
X61342709Y-106715500D01*
X61577291Y-106715500D01*
X61577292Y-106715500D01*
X61808676Y-106676889D01*
X62030548Y-106600720D01*
X62236858Y-106489070D01*
X62421978Y-106344986D01*
X62580857Y-106172398D01*
X62580858Y-106172395D01*
X62580861Y-106172393D01*
X62626191Y-106103009D01*
X62679336Y-106057651D01*
X62748568Y-106048227D01*
X62811904Y-106077728D01*
X62833809Y-106103009D01*
X62879138Y-106172393D01*
X62879143Y-106172398D01*
X63038022Y-106344986D01*
X63223142Y-106489070D01*
X63429452Y-106600720D01*
X63544662Y-106640272D01*
X63651320Y-106676888D01*
X63651322Y-106676888D01*
X63651324Y-106676889D01*
X63882708Y-106715500D01*
X63882709Y-106715500D01*
X64117291Y-106715500D01*
X64117292Y-106715500D01*
X64348676Y-106676889D01*
X64570548Y-106600720D01*
X64776858Y-106489070D01*
X64961978Y-106344986D01*
X65120857Y-106172398D01*
X65120858Y-106172395D01*
X65120861Y-106172393D01*
X65166191Y-106103009D01*
X65219336Y-106057651D01*
X65288568Y-106048227D01*
X65351904Y-106077728D01*
X65373809Y-106103009D01*
X65419138Y-106172393D01*
X65419143Y-106172398D01*
X65578022Y-106344986D01*
X65763142Y-106489070D01*
X65969452Y-106600720D01*
X66084662Y-106640272D01*
X66191320Y-106676888D01*
X66191322Y-106676888D01*
X66191324Y-106676889D01*
X66422708Y-106715500D01*
X66422709Y-106715500D01*
X66657291Y-106715500D01*
X66657292Y-106715500D01*
X66888676Y-106676889D01*
X67110548Y-106600720D01*
X67316858Y-106489070D01*
X67501978Y-106344986D01*
X67660857Y-106172398D01*
X67786217Y-105980518D01*
X67839362Y-105935162D01*
X67908593Y-105925738D01*
X67971929Y-105955239D01*
X67991599Y-105977216D01*
X68015333Y-106011111D01*
X68015334Y-106011111D01*
X68579439Y-105447006D01*
X68585418Y-105475775D01*
X68651181Y-105602693D01*
X68748749Y-105707162D01*
X68870884Y-105781434D01*
X68934339Y-105799213D01*
X68368887Y-106364665D01*
X68437548Y-106412742D01*
X68437554Y-106412746D01*
X68640540Y-106507399D01*
X68640549Y-106507403D01*
X68856875Y-106565367D01*
X68856886Y-106565369D01*
X69079998Y-106584889D01*
X69080002Y-106584889D01*
X69303113Y-106565369D01*
X69303124Y-106565367D01*
X69519450Y-106507403D01*
X69519464Y-106507398D01*
X69722440Y-106412749D01*
X69791111Y-106364664D01*
X69228765Y-105802318D01*
X69352724Y-105748475D01*
X69463608Y-105658265D01*
X69546041Y-105541483D01*
X69579864Y-105446311D01*
X70144664Y-106011110D01*
X70168398Y-105977215D01*
X70222975Y-105933590D01*
X70292474Y-105926398D01*
X70354828Y-105957920D01*
X70373782Y-105980518D01*
X70499140Y-106172395D01*
X70499143Y-106172398D01*
X70658022Y-106344986D01*
X70843142Y-106489070D01*
X71049452Y-106600720D01*
X71164662Y-106640272D01*
X71271320Y-106676888D01*
X71271322Y-106676888D01*
X71271324Y-106676889D01*
X71502708Y-106715500D01*
X71502709Y-106715500D01*
X71737291Y-106715500D01*
X71737292Y-106715500D01*
X71968676Y-106676889D01*
X72190548Y-106600720D01*
X72396858Y-106489070D01*
X72581978Y-106344986D01*
X72740857Y-106172398D01*
X72740858Y-106172395D01*
X72740861Y-106172393D01*
X72786191Y-106103009D01*
X72839336Y-106057651D01*
X72908568Y-106048227D01*
X72971904Y-106077728D01*
X72993809Y-106103009D01*
X73039138Y-106172393D01*
X73039143Y-106172398D01*
X73198022Y-106344986D01*
X73383142Y-106489070D01*
X73589452Y-106600720D01*
X73704662Y-106640272D01*
X73811320Y-106676888D01*
X73811322Y-106676888D01*
X73811324Y-106676889D01*
X74042708Y-106715500D01*
X74042709Y-106715500D01*
X74277291Y-106715500D01*
X74277292Y-106715500D01*
X74508676Y-106676889D01*
X74730548Y-106600720D01*
X74936858Y-106489070D01*
X75121978Y-106344986D01*
X75280857Y-106172398D01*
X75280858Y-106172395D01*
X75280861Y-106172393D01*
X75326191Y-106103009D01*
X75379336Y-106057651D01*
X75448568Y-106048227D01*
X75511904Y-106077728D01*
X75533809Y-106103009D01*
X75579138Y-106172393D01*
X75579143Y-106172398D01*
X75738022Y-106344986D01*
X75923142Y-106489070D01*
X76129452Y-106600720D01*
X76244662Y-106640272D01*
X76351320Y-106676888D01*
X76351322Y-106676888D01*
X76351324Y-106676889D01*
X76582708Y-106715500D01*
X76582709Y-106715500D01*
X76817291Y-106715500D01*
X76817292Y-106715500D01*
X77048676Y-106676889D01*
X77270548Y-106600720D01*
X77476858Y-106489070D01*
X77661978Y-106344986D01*
X77820857Y-106172398D01*
X77820858Y-106172395D01*
X77820861Y-106172393D01*
X77866191Y-106103009D01*
X77919336Y-106057651D01*
X77988568Y-106048227D01*
X78051904Y-106077728D01*
X78073809Y-106103009D01*
X78119138Y-106172393D01*
X78119143Y-106172398D01*
X78278022Y-106344986D01*
X78463142Y-106489070D01*
X78669452Y-106600720D01*
X78784662Y-106640272D01*
X78891320Y-106676888D01*
X78891322Y-106676888D01*
X78891324Y-106676889D01*
X79122708Y-106715500D01*
X79122709Y-106715500D01*
X79357291Y-106715500D01*
X79357292Y-106715500D01*
X79588676Y-106676889D01*
X79810548Y-106600720D01*
X80016858Y-106489070D01*
X80201978Y-106344986D01*
X80360857Y-106172398D01*
X80360858Y-106172395D01*
X80360861Y-106172393D01*
X80406191Y-106103009D01*
X80459336Y-106057651D01*
X80528568Y-106048227D01*
X80591904Y-106077728D01*
X80613809Y-106103009D01*
X80659138Y-106172393D01*
X80659143Y-106172398D01*
X80818022Y-106344986D01*
X81003142Y-106489070D01*
X81209452Y-106600720D01*
X81324662Y-106640272D01*
X81431320Y-106676888D01*
X81431322Y-106676888D01*
X81431324Y-106676889D01*
X81662708Y-106715500D01*
X81662709Y-106715500D01*
X81897291Y-106715500D01*
X81897292Y-106715500D01*
X82128676Y-106676889D01*
X82350548Y-106600720D01*
X82556858Y-106489070D01*
X82741978Y-106344986D01*
X82900857Y-106172398D01*
X82900858Y-106172395D01*
X82900861Y-106172393D01*
X82946191Y-106103009D01*
X82999336Y-106057651D01*
X83068568Y-106048227D01*
X83131904Y-106077728D01*
X83153809Y-106103009D01*
X83199138Y-106172393D01*
X83199143Y-106172398D01*
X83358022Y-106344986D01*
X83543142Y-106489070D01*
X83749452Y-106600720D01*
X83864662Y-106640272D01*
X83971320Y-106676888D01*
X83971322Y-106676888D01*
X83971324Y-106676889D01*
X84202708Y-106715500D01*
X84202709Y-106715500D01*
X84437291Y-106715500D01*
X84437292Y-106715500D01*
X84668676Y-106676889D01*
X84890548Y-106600720D01*
X85096858Y-106489070D01*
X85281978Y-106344986D01*
X85440857Y-106172398D01*
X85440858Y-106172395D01*
X85440861Y-106172393D01*
X85486191Y-106103009D01*
X85539336Y-106057651D01*
X85608568Y-106048227D01*
X85671904Y-106077728D01*
X85693809Y-106103009D01*
X85739138Y-106172393D01*
X85739143Y-106172398D01*
X85898022Y-106344986D01*
X86083142Y-106489070D01*
X86289452Y-106600720D01*
X86404662Y-106640272D01*
X86511320Y-106676888D01*
X86511322Y-106676888D01*
X86511324Y-106676889D01*
X86742708Y-106715500D01*
X86742709Y-106715500D01*
X86977291Y-106715500D01*
X86977292Y-106715500D01*
X87208676Y-106676889D01*
X87430548Y-106600720D01*
X87636858Y-106489070D01*
X87821978Y-106344986D01*
X87980857Y-106172398D01*
X87980858Y-106172395D01*
X87980861Y-106172393D01*
X88026191Y-106103009D01*
X88079336Y-106057651D01*
X88148568Y-106048227D01*
X88211904Y-106077728D01*
X88233809Y-106103009D01*
X88279138Y-106172393D01*
X88279143Y-106172398D01*
X88438022Y-106344986D01*
X88623142Y-106489070D01*
X88829452Y-106600720D01*
X88944662Y-106640272D01*
X89051320Y-106676888D01*
X89051322Y-106676888D01*
X89051324Y-106676889D01*
X89282708Y-106715500D01*
X89282709Y-106715500D01*
X89517291Y-106715500D01*
X89517292Y-106715500D01*
X89748676Y-106676889D01*
X89970548Y-106600720D01*
X90176858Y-106489070D01*
X90361978Y-106344986D01*
X90520857Y-106172398D01*
X90520858Y-106172395D01*
X90520861Y-106172393D01*
X90566191Y-106103009D01*
X90619336Y-106057651D01*
X90688568Y-106048227D01*
X90751904Y-106077728D01*
X90773809Y-106103009D01*
X90819138Y-106172393D01*
X90819143Y-106172398D01*
X90978022Y-106344986D01*
X91163142Y-106489070D01*
X91369452Y-106600720D01*
X91484662Y-106640272D01*
X91591320Y-106676888D01*
X91591322Y-106676888D01*
X91591324Y-106676889D01*
X91822708Y-106715500D01*
X91822709Y-106715500D01*
X92057291Y-106715500D01*
X92057292Y-106715500D01*
X92288676Y-106676889D01*
X92510548Y-106600720D01*
X92716858Y-106489070D01*
X92901978Y-106344986D01*
X93060857Y-106172398D01*
X93060858Y-106172395D01*
X93060861Y-106172393D01*
X93106191Y-106103009D01*
X93159336Y-106057651D01*
X93228568Y-106048227D01*
X93291904Y-106077728D01*
X93313809Y-106103009D01*
X93359138Y-106172393D01*
X93359143Y-106172398D01*
X93518022Y-106344986D01*
X93703142Y-106489070D01*
X93909452Y-106600720D01*
X94024662Y-106640272D01*
X94131320Y-106676888D01*
X94131322Y-106676888D01*
X94131324Y-106676889D01*
X94362708Y-106715500D01*
X94362709Y-106715500D01*
X94597291Y-106715500D01*
X94597292Y-106715500D01*
X94828676Y-106676889D01*
X95050548Y-106600720D01*
X95256858Y-106489070D01*
X95441978Y-106344986D01*
X95600857Y-106172398D01*
X95600858Y-106172395D01*
X95600861Y-106172393D01*
X95646191Y-106103009D01*
X95699336Y-106057651D01*
X95768568Y-106048227D01*
X95831904Y-106077728D01*
X95853809Y-106103009D01*
X95899138Y-106172393D01*
X95899143Y-106172398D01*
X96058022Y-106344986D01*
X96243142Y-106489070D01*
X96449452Y-106600720D01*
X96564662Y-106640272D01*
X96671320Y-106676888D01*
X96671322Y-106676888D01*
X96671324Y-106676889D01*
X96902708Y-106715500D01*
X96902709Y-106715500D01*
X97137291Y-106715500D01*
X97137292Y-106715500D01*
X97368676Y-106676889D01*
X97590548Y-106600720D01*
X97796858Y-106489070D01*
X97981978Y-106344986D01*
X98140857Y-106172398D01*
X98140858Y-106172395D01*
X98140861Y-106172393D01*
X98186191Y-106103009D01*
X98239336Y-106057651D01*
X98308568Y-106048227D01*
X98371904Y-106077728D01*
X98393809Y-106103009D01*
X98439138Y-106172393D01*
X98439143Y-106172398D01*
X98598022Y-106344986D01*
X98783142Y-106489070D01*
X98989452Y-106600720D01*
X99104662Y-106640272D01*
X99211320Y-106676888D01*
X99211322Y-106676888D01*
X99211324Y-106676889D01*
X99442708Y-106715500D01*
X99442709Y-106715500D01*
X99677291Y-106715500D01*
X99677292Y-106715500D01*
X99908676Y-106676889D01*
X100130548Y-106600720D01*
X100336858Y-106489070D01*
X100521978Y-106344986D01*
X100680857Y-106172398D01*
X100809161Y-105976012D01*
X100903392Y-105761187D01*
X100960979Y-105533782D01*
X100980351Y-105300000D01*
X100960979Y-105066218D01*
X100943528Y-104997307D01*
X100903392Y-104838812D01*
X100809161Y-104623988D01*
X100680859Y-104427604D01*
X100653441Y-104397820D01*
X100521978Y-104255014D01*
X100371615Y-104137982D01*
X100336860Y-104110931D01*
X100130548Y-103999280D01*
X100130540Y-103999277D01*
X99908679Y-103923111D01*
X99735138Y-103894152D01*
X99677292Y-103884500D01*
X99442708Y-103884500D01*
X99396431Y-103892222D01*
X99211320Y-103923111D01*
X98989459Y-103999277D01*
X98989451Y-103999280D01*
X98783139Y-104110931D01*
X98685079Y-104187255D01*
X98598022Y-104255014D01*
X98598019Y-104255016D01*
X98598019Y-104255017D01*
X98439140Y-104427604D01*
X98393809Y-104496991D01*
X98340663Y-104542348D01*
X98271432Y-104551772D01*
X98208096Y-104522270D01*
X98186191Y-104496991D01*
X98140859Y-104427604D01*
X98113441Y-104397820D01*
X97981978Y-104255014D01*
X97831615Y-104137982D01*
X97796860Y-104110931D01*
X97590548Y-103999280D01*
X97590540Y-103999277D01*
X97368679Y-103923111D01*
X97195138Y-103894152D01*
X97137292Y-103884500D01*
X96902708Y-103884500D01*
X96856431Y-103892222D01*
X96671320Y-103923111D01*
X96449459Y-103999277D01*
X96449451Y-103999280D01*
X96243139Y-104110931D01*
X96145079Y-104187255D01*
X96058022Y-104255014D01*
X96058019Y-104255016D01*
X96058019Y-104255017D01*
X95899140Y-104427604D01*
X95853809Y-104496991D01*
X95800663Y-104542348D01*
X95731432Y-104551772D01*
X95668096Y-104522270D01*
X95646191Y-104496991D01*
X95600859Y-104427604D01*
X95573441Y-104397820D01*
X95441978Y-104255014D01*
X95291615Y-104137982D01*
X95256860Y-104110931D01*
X95050548Y-103999280D01*
X95050540Y-103999277D01*
X94828679Y-103923111D01*
X94655138Y-103894152D01*
X94597292Y-103884500D01*
X94362708Y-103884500D01*
X94316431Y-103892222D01*
X94131320Y-103923111D01*
X93909459Y-103999277D01*
X93909451Y-103999280D01*
X93703139Y-104110931D01*
X93605079Y-104187255D01*
X93518022Y-104255014D01*
X93518019Y-104255016D01*
X93518019Y-104255017D01*
X93359140Y-104427604D01*
X93313809Y-104496991D01*
X93260663Y-104542348D01*
X93191432Y-104551772D01*
X93128096Y-104522270D01*
X93106191Y-104496991D01*
X93060859Y-104427604D01*
X93033441Y-104397820D01*
X92901978Y-104255014D01*
X92751615Y-104137982D01*
X92716860Y-104110931D01*
X92510548Y-103999280D01*
X92510540Y-103999277D01*
X92288679Y-103923111D01*
X92115138Y-103894152D01*
X92057292Y-103884500D01*
X91822708Y-103884500D01*
X91776431Y-103892222D01*
X91591320Y-103923111D01*
X91369459Y-103999277D01*
X91369451Y-103999280D01*
X91163139Y-104110931D01*
X91065079Y-104187255D01*
X90978022Y-104255014D01*
X90978019Y-104255016D01*
X90978019Y-104255017D01*
X90819140Y-104427604D01*
X90773809Y-104496991D01*
X90720663Y-104542348D01*
X90651432Y-104551772D01*
X90588096Y-104522270D01*
X90566191Y-104496991D01*
X90520859Y-104427604D01*
X90493441Y-104397820D01*
X90361978Y-104255014D01*
X90211615Y-104137982D01*
X90176860Y-104110931D01*
X89970548Y-103999280D01*
X89970540Y-103999277D01*
X89748679Y-103923111D01*
X89575138Y-103894152D01*
X89517292Y-103884500D01*
X89282708Y-103884500D01*
X89236431Y-103892222D01*
X89051320Y-103923111D01*
X88829459Y-103999277D01*
X88829451Y-103999280D01*
X88623139Y-104110931D01*
X88525079Y-104187255D01*
X88438022Y-104255014D01*
X88438019Y-104255016D01*
X88438019Y-104255017D01*
X88279140Y-104427604D01*
X88233809Y-104496991D01*
X88180663Y-104542348D01*
X88111432Y-104551772D01*
X88048096Y-104522270D01*
X88026191Y-104496991D01*
X87980859Y-104427604D01*
X87953441Y-104397820D01*
X87821978Y-104255014D01*
X87671615Y-104137982D01*
X87636860Y-104110931D01*
X87430548Y-103999280D01*
X87430540Y-103999277D01*
X87208679Y-103923111D01*
X87035138Y-103894152D01*
X86977292Y-103884500D01*
X86742708Y-103884500D01*
X86696431Y-103892222D01*
X86511320Y-103923111D01*
X86289459Y-103999277D01*
X86289451Y-103999280D01*
X86083139Y-104110931D01*
X85985079Y-104187255D01*
X85898022Y-104255014D01*
X85898019Y-104255016D01*
X85898019Y-104255017D01*
X85739140Y-104427604D01*
X85693809Y-104496991D01*
X85640663Y-104542348D01*
X85571432Y-104551772D01*
X85508096Y-104522270D01*
X85486191Y-104496991D01*
X85440859Y-104427604D01*
X85413441Y-104397820D01*
X85281978Y-104255014D01*
X85131615Y-104137982D01*
X85096860Y-104110931D01*
X84890548Y-103999280D01*
X84890540Y-103999277D01*
X84668679Y-103923111D01*
X84495138Y-103894152D01*
X84437292Y-103884500D01*
X84202708Y-103884500D01*
X84156431Y-103892222D01*
X83971320Y-103923111D01*
X83749459Y-103999277D01*
X83749451Y-103999280D01*
X83543139Y-104110931D01*
X83445079Y-104187255D01*
X83358022Y-104255014D01*
X83358019Y-104255016D01*
X83358019Y-104255017D01*
X83199140Y-104427604D01*
X83153809Y-104496991D01*
X83100663Y-104542348D01*
X83031432Y-104551772D01*
X82968096Y-104522270D01*
X82946191Y-104496991D01*
X82900859Y-104427604D01*
X82873441Y-104397820D01*
X82741978Y-104255014D01*
X82591615Y-104137982D01*
X82556860Y-104110931D01*
X82350548Y-103999280D01*
X82350540Y-103999277D01*
X82128679Y-103923111D01*
X81955138Y-103894152D01*
X81897292Y-103884500D01*
X81662708Y-103884500D01*
X81616431Y-103892222D01*
X81431320Y-103923111D01*
X81209459Y-103999277D01*
X81209451Y-103999280D01*
X81003139Y-104110931D01*
X80905079Y-104187255D01*
X80818022Y-104255014D01*
X80818019Y-104255016D01*
X80818019Y-104255017D01*
X80659140Y-104427604D01*
X80613809Y-104496991D01*
X80560663Y-104542348D01*
X80491432Y-104551772D01*
X80428096Y-104522270D01*
X80406191Y-104496991D01*
X80360859Y-104427604D01*
X80341704Y-104406796D01*
X80201978Y-104255014D01*
X80177337Y-104235835D01*
X80136524Y-104179124D01*
X80129500Y-104137982D01*
X80129500Y-103191140D01*
X80149185Y-103124101D01*
X80165819Y-103103459D01*
X81332124Y-101937154D01*
X81393447Y-101903669D01*
X81419805Y-101900835D01*
X82908901Y-101900835D01*
X82928298Y-101902361D01*
X82941855Y-101904509D01*
X83010343Y-101900919D01*
X83013587Y-101900835D01*
X83035280Y-101900835D01*
X83035285Y-101900835D01*
X83056905Y-101898561D01*
X83060057Y-101898313D01*
X83128580Y-101894724D01*
X83141847Y-101891168D01*
X83160969Y-101887624D01*
X83174621Y-101886190D01*
X83239839Y-101864998D01*
X83242924Y-101864084D01*
X83309189Y-101846329D01*
X83321419Y-101840096D01*
X83339394Y-101832651D01*
X83352450Y-101828410D01*
X83411850Y-101794114D01*
X83414654Y-101792590D01*
X83475790Y-101761442D01*
X83486452Y-101752806D01*
X83502486Y-101741785D01*
X83514380Y-101734920D01*
X83565381Y-101688997D01*
X83567783Y-101686946D01*
X83584671Y-101673272D01*
X83600036Y-101657905D01*
X83602357Y-101655703D01*
X83653334Y-101609805D01*
X83661407Y-101598692D01*
X83674036Y-101583905D01*
X84795432Y-100462511D01*
X84856755Y-100429026D01*
X84883113Y-100426192D01*
X87693574Y-100426192D01*
X87760613Y-100445877D01*
X87784803Y-100466209D01*
X87868175Y-100556774D01*
X87870713Y-100559531D01*
X87955754Y-100625721D01*
X87960334Y-100629286D01*
X88001146Y-100685996D01*
X88004821Y-100755769D01*
X87970189Y-100816452D01*
X87927505Y-100843321D01*
X87820213Y-100883338D01*
X87820208Y-100883341D01*
X87705114Y-100969501D01*
X87705111Y-100969504D01*
X87618951Y-101084598D01*
X87618947Y-101084605D01*
X87568705Y-101219312D01*
X87568703Y-101219319D01*
X87562302Y-101278847D01*
X87562302Y-101826692D01*
X88496616Y-101826692D01*
X88484661Y-101838647D01*
X88427137Y-101951544D01*
X88407316Y-102076692D01*
X88427137Y-102201840D01*
X88484661Y-102314737D01*
X88496616Y-102326692D01*
X87562302Y-102326692D01*
X87562302Y-102874536D01*
X87568703Y-102934064D01*
X87568705Y-102934071D01*
X87618947Y-103068778D01*
X87618951Y-103068785D01*
X87705111Y-103183879D01*
X87705114Y-103183882D01*
X87820208Y-103270042D01*
X87820215Y-103270046D01*
X87954922Y-103320288D01*
X87954929Y-103320290D01*
X88014457Y-103326691D01*
X88014474Y-103326692D01*
X88562302Y-103326692D01*
X88562302Y-102392378D01*
X88574257Y-102404333D01*
X88687154Y-102461857D01*
X88780821Y-102476692D01*
X88843783Y-102476692D01*
X88937450Y-102461857D01*
X89050347Y-102404333D01*
X89062302Y-102392378D01*
X89062302Y-103326692D01*
X89610130Y-103326692D01*
X89610146Y-103326691D01*
X89669674Y-103320290D01*
X89669681Y-103320288D01*
X89804388Y-103270046D01*
X89804395Y-103270042D01*
X89919489Y-103183882D01*
X89919492Y-103183879D01*
X90005652Y-103068785D01*
X90005656Y-103068778D01*
X90055898Y-102934071D01*
X90055900Y-102934064D01*
X90062301Y-102874536D01*
X90062302Y-102874519D01*
X90062302Y-102326692D01*
X89127988Y-102326692D01*
X89139943Y-102314737D01*
X89197467Y-102201840D01*
X89217288Y-102076692D01*
X89197467Y-101951544D01*
X89139943Y-101838647D01*
X89127988Y-101826692D01*
X90062302Y-101826692D01*
X90062302Y-101278864D01*
X90062301Y-101278847D01*
X90055900Y-101219319D01*
X90055898Y-101219312D01*
X90005656Y-101084605D01*
X90005652Y-101084598D01*
X89919492Y-100969504D01*
X89919489Y-100969501D01*
X89804395Y-100883341D01*
X89804388Y-100883337D01*
X89697099Y-100843321D01*
X89641165Y-100801450D01*
X89616748Y-100735985D01*
X89631600Y-100667712D01*
X89664267Y-100629287D01*
X89753891Y-100559531D01*
X89909403Y-100390600D01*
X90034989Y-100198377D01*
X90127223Y-99988105D01*
X90183589Y-99765519D01*
X90197431Y-99598468D01*
X90202550Y-99536697D01*
X90202550Y-99536686D01*
X90184520Y-99319098D01*
X90183589Y-99307865D01*
X90127223Y-99085279D01*
X90034989Y-98875007D01*
X90034824Y-98874755D01*
X89961753Y-98762911D01*
X89909403Y-98682784D01*
X89753891Y-98513853D01*
X89572696Y-98372823D01*
X89569145Y-98370503D01*
X89523786Y-98317358D01*
X89514361Y-98248127D01*
X89543860Y-98184790D01*
X89569145Y-98162881D01*
X89572687Y-98160565D01*
X89572696Y-98160561D01*
X89753891Y-98019531D01*
X89909403Y-97850600D01*
X90034989Y-97658377D01*
X90127223Y-97448105D01*
X90183589Y-97225519D01*
X90192724Y-97115274D01*
X90202550Y-96996697D01*
X90202550Y-96996686D01*
X90187572Y-96815934D01*
X90183589Y-96767865D01*
X90127223Y-96545279D01*
X90034989Y-96335007D01*
X90020606Y-96312993D01*
X89953615Y-96210455D01*
X89909403Y-96142784D01*
X89753891Y-95973853D01*
X89626624Y-95874797D01*
X89572698Y-95832824D01*
X89572693Y-95832821D01*
X89370764Y-95723543D01*
X89370761Y-95723542D01*
X89370758Y-95723540D01*
X89370752Y-95723538D01*
X89370750Y-95723537D01*
X89153590Y-95648985D01*
X89002601Y-95623789D01*
X88927108Y-95611192D01*
X88697496Y-95611192D01*
X88640876Y-95620640D01*
X88471013Y-95648985D01*
X88253853Y-95723537D01*
X88253839Y-95723543D01*
X88051910Y-95832821D01*
X88051905Y-95832824D01*
X87870714Y-95973852D01*
X87870709Y-95973856D01*
X87784803Y-96067175D01*
X87724916Y-96103166D01*
X87693574Y-96107192D01*
X87416497Y-96107192D01*
X87349458Y-96087507D01*
X87328816Y-96070873D01*
X86660819Y-95402876D01*
X86627334Y-95341553D01*
X86624500Y-95315195D01*
X86624500Y-95082667D01*
X86644185Y-95015628D01*
X86696989Y-94969873D01*
X86766147Y-94959929D01*
X86829703Y-94988954D01*
G37*
%TD.AperFunction*%
%TA.AperFunction,Conductor*%
G36*
X67180337Y-90020185D02*
G01*
X67226092Y-90072989D01*
X67236036Y-90142147D01*
X67207011Y-90205703D01*
X67200979Y-90212181D01*
X67120413Y-90292746D01*
X67120412Y-90292747D01*
X66998866Y-90472330D01*
X66998857Y-90472346D01*
X66913500Y-90671674D01*
X66913495Y-90671690D01*
X66869639Y-90873296D01*
X66867402Y-90883581D01*
X66864500Y-90932296D01*
X66864500Y-94367704D01*
X66867402Y-94416419D01*
X66867402Y-94416423D01*
X66867403Y-94416424D01*
X66913495Y-94628309D01*
X66913500Y-94628325D01*
X66998857Y-94827653D01*
X66998860Y-94827658D01*
X66998862Y-94827663D01*
X66998865Y-94827668D01*
X66998866Y-94827669D01*
X67120412Y-95007252D01*
X67273747Y-95160587D01*
X67273750Y-95160589D01*
X67453337Y-95282138D01*
X67453344Y-95282141D01*
X67453346Y-95282142D01*
X67652674Y-95367499D01*
X67652681Y-95367501D01*
X67652683Y-95367502D01*
X67652684Y-95367502D01*
X67652690Y-95367504D01*
X67738968Y-95386272D01*
X67864581Y-95413598D01*
X67913296Y-95416500D01*
X67913301Y-95416500D01*
X69086699Y-95416500D01*
X69086704Y-95416500D01*
X69135419Y-95413598D01*
X69311140Y-95375372D01*
X69347309Y-95367504D01*
X69347311Y-95367503D01*
X69347317Y-95367502D01*
X69347321Y-95367500D01*
X69347325Y-95367499D01*
X69519387Y-95293818D01*
X69546663Y-95282138D01*
X69726250Y-95160589D01*
X69879589Y-95007250D01*
X70001138Y-94827663D01*
X70070183Y-94666427D01*
X70086499Y-94628325D01*
X70086500Y-94628321D01*
X70086502Y-94628317D01*
X70132598Y-94416419D01*
X70135500Y-94367704D01*
X70135500Y-92323805D01*
X70155185Y-92256766D01*
X70171819Y-92236124D01*
X70482124Y-91925819D01*
X70543447Y-91892334D01*
X70569805Y-91889500D01*
X90580195Y-91889500D01*
X90647234Y-91909185D01*
X90667876Y-91925819D01*
X92074181Y-93332124D01*
X92107666Y-93393447D01*
X92110500Y-93419805D01*
X92110500Y-94790695D01*
X92090815Y-94857734D01*
X92038011Y-94903489D01*
X91968853Y-94913433D01*
X91905297Y-94884408D01*
X91898819Y-94878376D01*
X90197875Y-93177432D01*
X90185243Y-93162643D01*
X90177169Y-93151530D01*
X90177166Y-93151527D01*
X90126201Y-93105637D01*
X90123846Y-93103403D01*
X90108513Y-93088069D01*
X90108500Y-93088058D01*
X90106048Y-93086072D01*
X90091624Y-93074392D01*
X90089188Y-93072311D01*
X90053780Y-93040429D01*
X90038212Y-93026412D01*
X90026324Y-93019549D01*
X90010289Y-93008529D01*
X89999625Y-92999893D01*
X89999624Y-92999892D01*
X89974927Y-92987308D01*
X89938505Y-92968751D01*
X89935682Y-92967218D01*
X89876285Y-92932925D01*
X89876283Y-92932924D01*
X89872498Y-92930739D01*
X89824283Y-92880171D01*
X89810499Y-92823352D01*
X89810499Y-92785820D01*
X89807665Y-92749796D01*
X89762869Y-92595607D01*
X89681135Y-92457402D01*
X89681133Y-92457400D01*
X89681130Y-92457396D01*
X89567603Y-92343869D01*
X89567595Y-92343863D01*
X89429393Y-92262131D01*
X89429388Y-92262129D01*
X89275208Y-92217335D01*
X89275202Y-92217334D01*
X89239183Y-92214500D01*
X89239181Y-92214500D01*
X87310820Y-92214501D01*
X87274795Y-92217335D01*
X87120611Y-92262129D01*
X87120606Y-92262131D01*
X86982404Y-92343863D01*
X86982396Y-92343869D01*
X86868869Y-92457396D01*
X86868860Y-92457407D01*
X86848987Y-92491012D01*
X86797918Y-92538695D01*
X86729176Y-92551198D01*
X86664587Y-92524552D01*
X86661725Y-92522181D01*
X86640336Y-92503913D01*
X86640332Y-92503911D01*
X86434258Y-92377628D01*
X86210958Y-92285135D01*
X85975944Y-92228714D01*
X85975945Y-92228714D01*
X85735000Y-92209752D01*
X85494054Y-92228714D01*
X85259041Y-92285135D01*
X85035741Y-92377628D01*
X84829669Y-92503909D01*
X84829667Y-92503910D01*
X84645880Y-92660880D01*
X84488910Y-92844667D01*
X84488909Y-92844669D01*
X84362628Y-93050741D01*
X84270135Y-93274041D01*
X84213714Y-93509054D01*
X84194752Y-93750000D01*
X84213714Y-93990945D01*
X84270135Y-94225958D01*
X84362628Y-94449258D01*
X84488909Y-94655330D01*
X84488910Y-94655332D01*
X84578216Y-94759896D01*
X84645880Y-94839120D01*
X84802033Y-94972487D01*
X84840225Y-95030991D01*
X84845500Y-95066775D01*
X84845500Y-95655235D01*
X84843972Y-95674634D01*
X84841826Y-95688190D01*
X84843911Y-95727987D01*
X84845415Y-95756676D01*
X84845500Y-95759921D01*
X84845500Y-95781621D01*
X84847768Y-95803199D01*
X84848022Y-95806434D01*
X84851610Y-95874912D01*
X84852493Y-95878209D01*
X84855166Y-95888184D01*
X84858709Y-95907298D01*
X84859597Y-95915744D01*
X84860145Y-95920958D01*
X84881331Y-95986160D01*
X84882252Y-95989271D01*
X84900004Y-96055520D01*
X84900005Y-96055523D01*
X84900006Y-96055524D01*
X84905942Y-96067175D01*
X84906236Y-96067751D01*
X84913681Y-96085724D01*
X84917925Y-96098785D01*
X84952225Y-96158195D01*
X84953751Y-96161005D01*
X84984893Y-96222125D01*
X84993529Y-96232789D01*
X85004549Y-96248824D01*
X85011412Y-96260712D01*
X85011415Y-96260715D01*
X85057311Y-96311688D01*
X85059392Y-96314124D01*
X85067361Y-96323965D01*
X85073058Y-96331000D01*
X85073069Y-96331013D01*
X85088403Y-96346346D01*
X85090637Y-96348701D01*
X85136527Y-96399666D01*
X85136530Y-96399669D01*
X85147643Y-96407743D01*
X85162432Y-96420375D01*
X86311314Y-97569257D01*
X86323949Y-97584050D01*
X86332021Y-97595160D01*
X86332023Y-97595162D01*
X86382990Y-97641053D01*
X86385345Y-97643288D01*
X86400681Y-97658624D01*
X86400692Y-97658634D01*
X86417548Y-97672284D01*
X86420016Y-97674392D01*
X86470974Y-97720275D01*
X86470975Y-97720275D01*
X86470977Y-97720277D01*
X86481844Y-97726550D01*
X86482863Y-97727139D01*
X86498901Y-97738162D01*
X86509565Y-97746798D01*
X86509567Y-97746799D01*
X86570672Y-97777933D01*
X86573507Y-97779473D01*
X86598162Y-97793706D01*
X86632907Y-97813767D01*
X86645965Y-97818009D01*
X86663933Y-97825451D01*
X86676168Y-97831686D01*
X86742421Y-97849438D01*
X86745492Y-97850347D01*
X86810736Y-97871547D01*
X86824386Y-97872981D01*
X86843521Y-97876528D01*
X86856777Y-97880081D01*
X86925262Y-97883669D01*
X86928497Y-97883923D01*
X86939884Y-97885120D01*
X86950071Y-97886192D01*
X86950072Y-97886192D01*
X86971770Y-97886192D01*
X86975013Y-97886276D01*
X87043502Y-97889866D01*
X87057058Y-97887718D01*
X87076456Y-97886192D01*
X87693574Y-97886192D01*
X87760613Y-97905877D01*
X87784803Y-97926209D01*
X87863179Y-98011347D01*
X87870713Y-98019531D01*
X88051908Y-98160561D01*
X88051912Y-98160563D01*
X88055474Y-98162891D01*
X88100824Y-98216043D01*
X88110240Y-98285275D01*
X88080731Y-98348608D01*
X88055474Y-98370493D01*
X88051912Y-98372820D01*
X87870712Y-98513853D01*
X87870709Y-98513856D01*
X87784803Y-98607175D01*
X87724916Y-98643166D01*
X87693574Y-98647192D01*
X84543072Y-98647192D01*
X84523674Y-98645665D01*
X84510118Y-98643518D01*
X84441635Y-98647107D01*
X84438392Y-98647192D01*
X84416688Y-98647192D01*
X84410395Y-98647853D01*
X84395096Y-98649460D01*
X84391865Y-98649714D01*
X84323390Y-98653304D01*
X84310127Y-98656857D01*
X84291013Y-98660400D01*
X84277357Y-98661836D01*
X84277345Y-98661838D01*
X84222325Y-98679715D01*
X84212135Y-98683026D01*
X84209032Y-98683945D01*
X84142787Y-98701696D01*
X84130547Y-98707932D01*
X84112579Y-98715374D01*
X84099526Y-98719615D01*
X84099520Y-98719617D01*
X84040128Y-98753907D01*
X84037277Y-98755455D01*
X83976188Y-98786582D01*
X83976174Y-98786591D01*
X83965512Y-98795225D01*
X83949486Y-98806239D01*
X83937599Y-98813102D01*
X83937591Y-98813108D01*
X83886634Y-98858989D01*
X83884170Y-98861094D01*
X83867309Y-98874748D01*
X83867292Y-98874763D01*
X83851947Y-98890108D01*
X83849596Y-98892338D01*
X83798640Y-98938219D01*
X83798636Y-98938223D01*
X83790562Y-98949336D01*
X83777930Y-98964125D01*
X82656541Y-100085516D01*
X82595218Y-100119001D01*
X82568860Y-100121835D01*
X81079764Y-100121835D01*
X81060366Y-100120308D01*
X81046810Y-100118161D01*
X80978321Y-100121750D01*
X80975078Y-100121835D01*
X78829084Y-100121835D01*
X78762045Y-100102150D01*
X78737855Y-100081818D01*
X78617968Y-99951587D01*
X78617958Y-99951578D01*
X78430238Y-99805469D01*
X78430232Y-99805465D01*
X78221006Y-99692237D01*
X78220997Y-99692234D01*
X78035686Y-99628616D01*
X77978671Y-99588230D01*
X77952540Y-99523431D01*
X77965592Y-99454791D01*
X78013680Y-99404103D01*
X78035686Y-99394054D01*
X78119226Y-99365374D01*
X78221005Y-99330433D01*
X78430230Y-99217206D01*
X78447903Y-99203451D01*
X78513382Y-99152486D01*
X78617965Y-99071086D01*
X78779089Y-98896059D01*
X78909207Y-98696899D01*
X79004769Y-98479039D01*
X79063170Y-98248420D01*
X79063171Y-98248412D01*
X79082815Y-98011340D01*
X79082815Y-98011330D01*
X79076924Y-97940243D01*
X79073597Y-97900099D01*
X79087677Y-97831665D01*
X79109489Y-97802182D01*
X79822570Y-97089101D01*
X79837357Y-97076472D01*
X79848470Y-97068399D01*
X79894368Y-97017422D01*
X79896570Y-97015101D01*
X79911937Y-96999736D01*
X79925611Y-96982848D01*
X79927662Y-96980446D01*
X79973585Y-96929445D01*
X79980450Y-96917551D01*
X79991471Y-96901517D01*
X80000107Y-96890855D01*
X80031255Y-96829719D01*
X80032779Y-96826915D01*
X80067075Y-96767515D01*
X80071316Y-96754459D01*
X80078761Y-96736484D01*
X80084994Y-96724254D01*
X80102749Y-96657989D01*
X80103664Y-96654903D01*
X80124855Y-96589686D01*
X80126289Y-96576034D01*
X80129833Y-96556912D01*
X80133389Y-96543645D01*
X80136978Y-96475122D01*
X80137226Y-96471970D01*
X80139500Y-96450350D01*
X80139500Y-96428651D01*
X80139585Y-96425406D01*
X80139849Y-96420375D01*
X80143174Y-96356920D01*
X80141027Y-96343364D01*
X80139500Y-96323965D01*
X80139500Y-95406612D01*
X80159185Y-95339573D01*
X80211989Y-95293818D01*
X80244164Y-95285483D01*
X80243969Y-95284414D01*
X80250200Y-95283275D01*
X80250204Y-95283275D01*
X80404393Y-95238479D01*
X80542598Y-95156745D01*
X80656135Y-95043208D01*
X80737869Y-94905003D01*
X80776142Y-94773267D01*
X80782664Y-94750818D01*
X80782665Y-94750812D01*
X80785500Y-94714793D01*
X80785499Y-92786430D01*
X80785451Y-92785820D01*
X80782665Y-92750406D01*
X80737869Y-92596217D01*
X80656135Y-92458012D01*
X80656133Y-92458010D01*
X80656130Y-92458006D01*
X80542603Y-92344479D01*
X80542595Y-92344473D01*
X80404393Y-92262741D01*
X80404388Y-92262739D01*
X80250208Y-92217945D01*
X80250202Y-92217944D01*
X80214183Y-92215110D01*
X80214181Y-92215110D01*
X78285820Y-92215111D01*
X78249795Y-92217945D01*
X78095611Y-92262739D01*
X78095606Y-92262741D01*
X77957404Y-92344473D01*
X77957396Y-92344479D01*
X77843869Y-92458006D01*
X77843860Y-92458017D01*
X77823987Y-92491622D01*
X77772918Y-92539305D01*
X77704176Y-92551808D01*
X77639587Y-92525162D01*
X77636725Y-92522791D01*
X77615336Y-92504523D01*
X77615332Y-92504521D01*
X77409258Y-92378238D01*
X77185958Y-92285745D01*
X76950944Y-92229324D01*
X76950945Y-92229324D01*
X76710000Y-92210362D01*
X76469054Y-92229324D01*
X76234041Y-92285745D01*
X76010741Y-92378238D01*
X75804669Y-92504519D01*
X75804667Y-92504520D01*
X75620880Y-92661490D01*
X75463910Y-92845277D01*
X75463909Y-92845279D01*
X75337628Y-93051351D01*
X75245135Y-93274651D01*
X75188714Y-93509664D01*
X75169752Y-93750610D01*
X75185863Y-93955330D01*
X75171498Y-94023707D01*
X75149926Y-94052739D01*
X71047433Y-98155232D01*
X71032644Y-98167864D01*
X71021531Y-98175938D01*
X71021527Y-98175942D01*
X70975646Y-98226898D01*
X70973416Y-98229249D01*
X70958071Y-98244594D01*
X70958056Y-98244611D01*
X70944402Y-98261472D01*
X70942297Y-98263936D01*
X70896416Y-98314893D01*
X70896410Y-98314901D01*
X70889547Y-98326788D01*
X70878533Y-98342814D01*
X70869891Y-98353486D01*
X70838761Y-98414583D01*
X70837213Y-98417433D01*
X70802925Y-98476824D01*
X70802924Y-98476826D01*
X70798681Y-98489885D01*
X70791241Y-98507847D01*
X70788180Y-98513856D01*
X70785006Y-98520086D01*
X70767251Y-98586345D01*
X70766335Y-98589437D01*
X70745145Y-98654650D01*
X70745144Y-98654657D01*
X70743709Y-98668307D01*
X70740166Y-98687425D01*
X70736610Y-98700695D01*
X70733022Y-98769174D01*
X70732768Y-98772408D01*
X70730500Y-98793985D01*
X70730500Y-98815687D01*
X70730415Y-98818930D01*
X70726826Y-98887420D01*
X70728194Y-98896060D01*
X70728973Y-98900974D01*
X70730500Y-98920374D01*
X70730500Y-104137982D01*
X70710815Y-104205021D01*
X70682663Y-104235835D01*
X70658024Y-104255012D01*
X70499140Y-104427604D01*
X70373783Y-104619481D01*
X70320637Y-104664838D01*
X70251406Y-104674262D01*
X70188070Y-104644760D01*
X70168399Y-104622784D01*
X70144664Y-104588887D01*
X69580559Y-105152991D01*
X69574582Y-105124225D01*
X69508819Y-104997307D01*
X69411251Y-104892838D01*
X69289116Y-104818566D01*
X69225660Y-104800786D01*
X69791111Y-104235334D01*
X69722444Y-104187253D01*
X69519459Y-104092600D01*
X69519450Y-104092596D01*
X69303124Y-104034632D01*
X69303113Y-104034630D01*
X69080002Y-104015111D01*
X69079998Y-104015111D01*
X68856886Y-104034630D01*
X68856875Y-104034632D01*
X68640549Y-104092596D01*
X68640540Y-104092600D01*
X68437552Y-104187255D01*
X68368888Y-104235333D01*
X68368887Y-104235334D01*
X68931235Y-104797681D01*
X68807276Y-104851525D01*
X68696392Y-104941735D01*
X68613959Y-105058517D01*
X68580135Y-105153688D01*
X68015334Y-104588887D01*
X68015332Y-104588888D01*
X67991599Y-104622783D01*
X67937022Y-104666408D01*
X67867524Y-104673600D01*
X67805169Y-104642077D01*
X67786216Y-104619480D01*
X67660859Y-104427604D01*
X67633441Y-104397820D01*
X67501978Y-104255014D01*
X67351615Y-104137982D01*
X67316860Y-104110931D01*
X67110548Y-103999280D01*
X67110540Y-103999277D01*
X66888679Y-103923111D01*
X66715138Y-103894152D01*
X66657292Y-103884500D01*
X66422708Y-103884500D01*
X66376431Y-103892222D01*
X66191320Y-103923111D01*
X65969459Y-103999277D01*
X65969451Y-103999280D01*
X65763139Y-104110931D01*
X65665079Y-104187255D01*
X65578022Y-104255014D01*
X65578019Y-104255016D01*
X65578019Y-104255017D01*
X65419140Y-104427604D01*
X65373809Y-104496991D01*
X65320663Y-104542348D01*
X65251432Y-104551772D01*
X65188096Y-104522270D01*
X65166191Y-104496991D01*
X65120859Y-104427604D01*
X65093441Y-104397820D01*
X64961978Y-104255014D01*
X64811615Y-104137982D01*
X64776860Y-104110931D01*
X64570548Y-103999280D01*
X64570540Y-103999277D01*
X64348679Y-103923111D01*
X64175138Y-103894152D01*
X64117292Y-103884500D01*
X63882708Y-103884500D01*
X63836431Y-103892222D01*
X63651320Y-103923111D01*
X63429459Y-103999277D01*
X63429451Y-103999280D01*
X63223139Y-104110931D01*
X63125079Y-104187255D01*
X63038022Y-104255014D01*
X63038019Y-104255016D01*
X63038019Y-104255017D01*
X62879140Y-104427604D01*
X62833809Y-104496991D01*
X62780663Y-104542348D01*
X62711432Y-104551772D01*
X62648096Y-104522270D01*
X62626191Y-104496991D01*
X62580859Y-104427604D01*
X62553441Y-104397820D01*
X62421978Y-104255014D01*
X62271615Y-104137982D01*
X62236860Y-104110931D01*
X62030548Y-103999280D01*
X62030540Y-103999277D01*
X61808679Y-103923111D01*
X61635138Y-103894152D01*
X61577292Y-103884500D01*
X61342708Y-103884500D01*
X61296431Y-103892222D01*
X61111320Y-103923111D01*
X60889459Y-103999277D01*
X60889451Y-103999280D01*
X60683139Y-104110931D01*
X60585079Y-104187255D01*
X60498022Y-104255014D01*
X60498019Y-104255016D01*
X60498019Y-104255017D01*
X60339140Y-104427604D01*
X60293809Y-104496991D01*
X60240663Y-104542348D01*
X60171432Y-104551772D01*
X60108096Y-104522270D01*
X60086191Y-104496991D01*
X60040859Y-104427604D01*
X60021704Y-104406796D01*
X59881978Y-104255014D01*
X59857337Y-104235835D01*
X59816524Y-104179124D01*
X59809500Y-104137982D01*
X59809500Y-101366805D01*
X59829185Y-101299766D01*
X59881989Y-101254011D01*
X59951147Y-101244067D01*
X60014703Y-101273092D01*
X60021181Y-101279124D01*
X60314622Y-101572565D01*
X60327257Y-101587358D01*
X60335329Y-101598468D01*
X60335331Y-101598470D01*
X60386298Y-101644361D01*
X60388653Y-101646596D01*
X60403989Y-101661932D01*
X60404000Y-101661942D01*
X60420856Y-101675592D01*
X60423324Y-101677700D01*
X60474282Y-101723583D01*
X60474283Y-101723583D01*
X60474285Y-101723585D01*
X60485152Y-101729858D01*
X60486171Y-101730447D01*
X60502209Y-101741470D01*
X60512873Y-101750106D01*
X60512875Y-101750107D01*
X60573980Y-101781241D01*
X60576815Y-101782781D01*
X60596470Y-101794128D01*
X60636215Y-101817075D01*
X60649273Y-101821317D01*
X60667241Y-101828759D01*
X60679476Y-101834994D01*
X60745729Y-101852746D01*
X60748800Y-101853655D01*
X60814044Y-101874855D01*
X60827694Y-101876289D01*
X60846829Y-101879836D01*
X60860085Y-101883389D01*
X60928570Y-101886977D01*
X60931805Y-101887231D01*
X60943192Y-101888428D01*
X60953379Y-101889500D01*
X60953380Y-101889500D01*
X60973311Y-101889500D01*
X61040350Y-101909185D01*
X61064540Y-101929517D01*
X61184426Y-102059747D01*
X61184436Y-102059756D01*
X61372156Y-102205865D01*
X61372162Y-102205869D01*
X61372165Y-102205871D01*
X61445615Y-102245620D01*
X61573331Y-102314737D01*
X61581390Y-102319098D01*
X61806398Y-102396344D01*
X62041051Y-102435500D01*
X62278949Y-102435500D01*
X62513602Y-102396344D01*
X62738610Y-102319098D01*
X62947835Y-102205871D01*
X63135570Y-102059751D01*
X63296694Y-101884724D01*
X63426812Y-101685564D01*
X63522374Y-101467704D01*
X63580775Y-101237085D01*
X63589111Y-101136483D01*
X63600420Y-101000006D01*
X63600420Y-100999993D01*
X63580776Y-100762922D01*
X63580774Y-100762911D01*
X63580375Y-100761334D01*
X66203522Y-100761334D01*
X66203523Y-100761335D01*
X67166709Y-100761335D01*
X67154754Y-100773290D01*
X67097230Y-100886187D01*
X67077409Y-101011335D01*
X67097230Y-101136483D01*
X67154754Y-101249380D01*
X67166709Y-101261335D01*
X66203523Y-101261335D01*
X66256125Y-101457652D01*
X66256129Y-101457661D01*
X66352260Y-101663817D01*
X66482737Y-101850155D01*
X66643574Y-102010992D01*
X66829912Y-102141469D01*
X67036068Y-102237600D01*
X67036077Y-102237604D01*
X67232394Y-102290207D01*
X67232395Y-102290206D01*
X67232395Y-101327021D01*
X67244350Y-101338976D01*
X67357247Y-101396500D01*
X67450914Y-101411335D01*
X67513876Y-101411335D01*
X67607543Y-101396500D01*
X67720440Y-101338976D01*
X67732395Y-101327021D01*
X67732395Y-102290207D01*
X67928712Y-102237604D01*
X67928721Y-102237600D01*
X68134877Y-102141469D01*
X68321215Y-102010992D01*
X68482052Y-101850155D01*
X68612529Y-101663817D01*
X68708660Y-101457661D01*
X68708664Y-101457652D01*
X68761267Y-101261335D01*
X67798081Y-101261335D01*
X67810036Y-101249380D01*
X67867560Y-101136483D01*
X67887381Y-101011335D01*
X67867560Y-100886187D01*
X67810036Y-100773290D01*
X67798081Y-100761335D01*
X68761267Y-100761335D01*
X68761267Y-100761334D01*
X68708664Y-100565017D01*
X68708660Y-100565008D01*
X68612529Y-100358852D01*
X68482052Y-100172514D01*
X68321215Y-100011677D01*
X68134877Y-99881200D01*
X67928723Y-99785069D01*
X67732395Y-99732462D01*
X67732395Y-100695649D01*
X67720440Y-100683694D01*
X67607543Y-100626170D01*
X67513876Y-100611335D01*
X67450914Y-100611335D01*
X67357247Y-100626170D01*
X67244350Y-100683694D01*
X67232395Y-100695649D01*
X67232395Y-99732462D01*
X67036066Y-99785069D01*
X66829912Y-99881200D01*
X66643574Y-100011677D01*
X66482737Y-100172514D01*
X66352260Y-100358852D01*
X66256129Y-100565008D01*
X66256125Y-100565017D01*
X66203522Y-100761334D01*
X63580375Y-100761334D01*
X63543276Y-100614835D01*
X63522374Y-100532296D01*
X63426812Y-100314436D01*
X63414414Y-100295460D01*
X63350987Y-100198377D01*
X63296694Y-100115276D01*
X63135570Y-99940249D01*
X63135569Y-99940248D01*
X63135567Y-99940246D01*
X63135563Y-99940243D01*
X62947843Y-99794134D01*
X62947837Y-99794130D01*
X62738611Y-99680902D01*
X62738602Y-99680899D01*
X62513604Y-99603656D01*
X62278949Y-99564500D01*
X62041051Y-99564500D01*
X61806395Y-99603656D01*
X61581397Y-99680899D01*
X61581388Y-99680902D01*
X61372162Y-99794130D01*
X61372157Y-99794134D01*
X61278579Y-99866967D01*
X61213585Y-99892609D01*
X61145045Y-99879042D01*
X61114737Y-99856794D01*
X60250399Y-98992456D01*
X60216914Y-98931133D01*
X60214080Y-98904775D01*
X60214080Y-97749999D01*
X60881127Y-97749999D01*
X60881128Y-97750000D01*
X61844314Y-97750000D01*
X61832359Y-97761955D01*
X61774835Y-97874852D01*
X61755014Y-98000000D01*
X61774835Y-98125148D01*
X61832359Y-98238045D01*
X61844314Y-98250000D01*
X60881128Y-98250000D01*
X60933730Y-98446317D01*
X60933734Y-98446326D01*
X61029865Y-98652482D01*
X61160342Y-98838820D01*
X61321179Y-98999657D01*
X61507517Y-99130134D01*
X61713673Y-99226265D01*
X61713682Y-99226269D01*
X61909999Y-99278872D01*
X61910000Y-99278871D01*
X61910000Y-98315686D01*
X61921955Y-98327641D01*
X62034852Y-98385165D01*
X62128519Y-98400000D01*
X62191481Y-98400000D01*
X62285148Y-98385165D01*
X62398045Y-98327641D01*
X62410000Y-98315686D01*
X62410000Y-99278872D01*
X62606317Y-99226269D01*
X62606326Y-99226265D01*
X62812482Y-99130134D01*
X62998820Y-98999657D01*
X63159657Y-98838820D01*
X63290134Y-98652482D01*
X63386265Y-98446326D01*
X63386269Y-98446317D01*
X63438872Y-98250000D01*
X62475686Y-98250000D01*
X62487641Y-98238045D01*
X62545165Y-98125148D01*
X62564986Y-98000000D01*
X62545165Y-97874852D01*
X62487641Y-97761955D01*
X62487020Y-97761334D01*
X66203522Y-97761334D01*
X66203523Y-97761335D01*
X67166709Y-97761335D01*
X67154754Y-97773290D01*
X67097230Y-97886187D01*
X67077409Y-98011335D01*
X67097230Y-98136483D01*
X67154754Y-98249380D01*
X67166709Y-98261335D01*
X66203523Y-98261335D01*
X66256125Y-98457652D01*
X66256129Y-98457661D01*
X66352260Y-98663817D01*
X66482737Y-98850155D01*
X66643574Y-99010992D01*
X66829912Y-99141469D01*
X67036068Y-99237600D01*
X67036077Y-99237604D01*
X67232394Y-99290207D01*
X67232395Y-99290206D01*
X67232395Y-98327021D01*
X67244350Y-98338976D01*
X67357247Y-98396500D01*
X67450914Y-98411335D01*
X67513876Y-98411335D01*
X67607543Y-98396500D01*
X67720440Y-98338976D01*
X67732395Y-98327021D01*
X67732395Y-99290207D01*
X67928712Y-99237604D01*
X67928721Y-99237600D01*
X68134877Y-99141469D01*
X68321215Y-99010992D01*
X68482052Y-98850155D01*
X68612529Y-98663817D01*
X68708660Y-98457661D01*
X68708664Y-98457652D01*
X68761267Y-98261335D01*
X67798081Y-98261335D01*
X67810036Y-98249380D01*
X67867560Y-98136483D01*
X67887381Y-98011335D01*
X67867560Y-97886187D01*
X67810036Y-97773290D01*
X67798081Y-97761335D01*
X68761267Y-97761335D01*
X68761267Y-97761334D01*
X68708664Y-97565017D01*
X68708660Y-97565008D01*
X68612529Y-97358852D01*
X68482052Y-97172514D01*
X68321215Y-97011677D01*
X68134877Y-96881200D01*
X67928723Y-96785069D01*
X67732395Y-96732462D01*
X67732395Y-97695649D01*
X67720440Y-97683694D01*
X67607543Y-97626170D01*
X67513876Y-97611335D01*
X67450914Y-97611335D01*
X67357247Y-97626170D01*
X67244350Y-97683694D01*
X67232395Y-97695649D01*
X67232395Y-96732462D01*
X67036066Y-96785069D01*
X66829912Y-96881200D01*
X66643574Y-97011677D01*
X66482737Y-97172514D01*
X66352260Y-97358852D01*
X66256129Y-97565008D01*
X66256125Y-97565017D01*
X66203522Y-97761334D01*
X62487020Y-97761334D01*
X62475686Y-97750000D01*
X63438872Y-97750000D01*
X63438872Y-97749999D01*
X63386269Y-97553682D01*
X63386265Y-97553673D01*
X63290134Y-97347517D01*
X63159657Y-97161179D01*
X62998820Y-97000342D01*
X62812482Y-96869865D01*
X62606328Y-96773734D01*
X62410000Y-96721127D01*
X62410000Y-97684314D01*
X62398045Y-97672359D01*
X62285148Y-97614835D01*
X62191481Y-97600000D01*
X62128519Y-97600000D01*
X62034852Y-97614835D01*
X61921955Y-97672359D01*
X61910000Y-97684314D01*
X61910000Y-96721127D01*
X61713671Y-96773734D01*
X61507517Y-96869865D01*
X61321179Y-97000342D01*
X61160342Y-97161179D01*
X61029865Y-97347517D01*
X60933734Y-97553673D01*
X60933730Y-97553682D01*
X60881127Y-97749999D01*
X60214080Y-97749999D01*
X60214080Y-97155975D01*
X60233765Y-97088936D01*
X60250399Y-97068294D01*
X61178539Y-96140154D01*
X62119898Y-95198794D01*
X62181219Y-95165311D01*
X62250911Y-95170295D01*
X62277075Y-95183783D01*
X62430196Y-95287418D01*
X62430200Y-95287419D01*
X62430202Y-95287421D01*
X62445141Y-95293818D01*
X62621707Y-95369428D01*
X62825278Y-95413712D01*
X62872079Y-95416500D01*
X63949420Y-95416499D01*
X63996222Y-95413712D01*
X64199793Y-95369428D01*
X64391304Y-95287418D01*
X64563834Y-95170647D01*
X64711147Y-95023334D01*
X64827918Y-94850804D01*
X64909928Y-94659293D01*
X64954212Y-94455722D01*
X64957000Y-94408921D01*
X64956999Y-90891080D01*
X64954212Y-90844278D01*
X64909928Y-90640707D01*
X64868923Y-90544951D01*
X64827921Y-90449202D01*
X64827919Y-90449200D01*
X64827918Y-90449196D01*
X64711147Y-90276666D01*
X64646662Y-90212181D01*
X64613177Y-90150858D01*
X64618161Y-90081166D01*
X64660033Y-90025233D01*
X64725497Y-90000816D01*
X64734343Y-90000500D01*
X67113298Y-90000500D01*
X67180337Y-90020185D01*
G37*
%TD.AperFunction*%
%TD*%
M02*
