%TF.GenerationSoftware,KiCad,Pcbnew,7.0.8*%
%TF.CreationDate,2024-04-25T10:28:09-06:00*%
%TF.ProjectId,ProtoBadge,50726f74-6f42-4616-9467-652e6b696361,rev?*%
%TF.SameCoordinates,Original*%
%TF.FileFunction,Legend,Top*%
%TF.FilePolarity,Positive*%
%FSLAX46Y46*%
G04 Gerber Fmt 4.6, Leading zero omitted, Abs format (unit mm)*
G04 Created by KiCad (PCBNEW 7.0.8) date 2024-04-25 10:28:09*
%MOMM*%
%LPD*%
G01*
G04 APERTURE LIST*
%ADD10C,0.100000*%
%ADD11C,0.150000*%
%ADD12C,0.120000*%
%ADD13C,0.127000*%
%ADD14C,0.200000*%
G04 APERTURE END LIST*
D10*
X107000000Y-93000000D02*
X157000000Y-93000000D01*
X157000000Y-106000000D01*
X107000000Y-106000000D01*
X107000000Y-93000000D01*
X107000000Y-106000000D02*
X157000000Y-106000000D01*
X157000000Y-119000000D01*
X107000000Y-119000000D01*
X107000000Y-106000000D01*
X107000000Y-119000000D02*
X157000000Y-119000000D01*
X157000000Y-132000000D01*
X107000000Y-132000000D01*
X107000000Y-119000000D01*
D11*
X103666666Y-128104819D02*
X103666666Y-128819104D01*
X103666666Y-128819104D02*
X103619047Y-128961961D01*
X103619047Y-128961961D02*
X103523809Y-129057200D01*
X103523809Y-129057200D02*
X103380952Y-129104819D01*
X103380952Y-129104819D02*
X103285714Y-129104819D01*
X104095238Y-128200057D02*
X104142857Y-128152438D01*
X104142857Y-128152438D02*
X104238095Y-128104819D01*
X104238095Y-128104819D02*
X104476190Y-128104819D01*
X104476190Y-128104819D02*
X104571428Y-128152438D01*
X104571428Y-128152438D02*
X104619047Y-128200057D01*
X104619047Y-128200057D02*
X104666666Y-128295295D01*
X104666666Y-128295295D02*
X104666666Y-128390533D01*
X104666666Y-128390533D02*
X104619047Y-128533390D01*
X104619047Y-128533390D02*
X104047619Y-129104819D01*
X104047619Y-129104819D02*
X104666666Y-129104819D01*
X104137185Y-90124510D02*
X104137185Y-90838795D01*
X104137185Y-90838795D02*
X104089566Y-90981652D01*
X104089566Y-90981652D02*
X103994328Y-91076891D01*
X103994328Y-91076891D02*
X103851471Y-91124510D01*
X103851471Y-91124510D02*
X103756233Y-91124510D01*
X105137185Y-91124510D02*
X104565757Y-91124510D01*
X104851471Y-91124510D02*
X104851471Y-90124510D01*
X104851471Y-90124510D02*
X104756233Y-90267367D01*
X104756233Y-90267367D02*
X104660995Y-90362605D01*
X104660995Y-90362605D02*
X104565757Y-90410224D01*
X86266905Y-96164819D02*
X86266905Y-95164819D01*
X86266905Y-95164819D02*
X86505000Y-95164819D01*
X86505000Y-95164819D02*
X86647857Y-95212438D01*
X86647857Y-95212438D02*
X86743095Y-95307676D01*
X86743095Y-95307676D02*
X86790714Y-95402914D01*
X86790714Y-95402914D02*
X86838333Y-95593390D01*
X86838333Y-95593390D02*
X86838333Y-95736247D01*
X86838333Y-95736247D02*
X86790714Y-95926723D01*
X86790714Y-95926723D02*
X86743095Y-96021961D01*
X86743095Y-96021961D02*
X86647857Y-96117200D01*
X86647857Y-96117200D02*
X86505000Y-96164819D01*
X86505000Y-96164819D02*
X86266905Y-96164819D01*
X87790714Y-96164819D02*
X87219286Y-96164819D01*
X87505000Y-96164819D02*
X87505000Y-95164819D01*
X87505000Y-95164819D02*
X87409762Y-95307676D01*
X87409762Y-95307676D02*
X87314524Y-95402914D01*
X87314524Y-95402914D02*
X87219286Y-95450533D01*
X84790359Y-99631930D02*
X84742740Y-99727168D01*
X84742740Y-99727168D02*
X84647502Y-99822406D01*
X84647502Y-99822406D02*
X84504644Y-99965263D01*
X84504644Y-99965263D02*
X84457025Y-100060501D01*
X84457025Y-100060501D02*
X84457025Y-100155739D01*
X84695121Y-100108120D02*
X84647502Y-100203358D01*
X84647502Y-100203358D02*
X84552263Y-100298596D01*
X84552263Y-100298596D02*
X84361787Y-100346215D01*
X84361787Y-100346215D02*
X84028454Y-100346215D01*
X84028454Y-100346215D02*
X83837978Y-100298596D01*
X83837978Y-100298596D02*
X83742740Y-100203358D01*
X83742740Y-100203358D02*
X83695121Y-100108120D01*
X83695121Y-100108120D02*
X83695121Y-99917644D01*
X83695121Y-99917644D02*
X83742740Y-99822406D01*
X83742740Y-99822406D02*
X83837978Y-99727168D01*
X83837978Y-99727168D02*
X84028454Y-99679549D01*
X84028454Y-99679549D02*
X84361787Y-99679549D01*
X84361787Y-99679549D02*
X84552263Y-99727168D01*
X84552263Y-99727168D02*
X84647502Y-99822406D01*
X84647502Y-99822406D02*
X84695121Y-99917644D01*
X84695121Y-99917644D02*
X84695121Y-100108120D01*
X84695121Y-98727168D02*
X84695121Y-99298596D01*
X84695121Y-99012882D02*
X83695121Y-99012882D01*
X83695121Y-99012882D02*
X83837978Y-99108120D01*
X83837978Y-99108120D02*
X83933216Y-99203358D01*
X83933216Y-99203358D02*
X83980835Y-99298596D01*
X44608567Y-129591373D02*
X45418403Y-129591373D01*
X45418403Y-129591373D02*
X45513678Y-129543736D01*
X45513678Y-129543736D02*
X45561316Y-129496099D01*
X45561316Y-129496099D02*
X45608953Y-129400824D01*
X45608953Y-129400824D02*
X45608953Y-129210274D01*
X45608953Y-129210274D02*
X45561316Y-129114999D01*
X45561316Y-129114999D02*
X45513678Y-129067362D01*
X45513678Y-129067362D02*
X45418403Y-129019724D01*
X45418403Y-129019724D02*
X44608567Y-129019724D01*
X45608953Y-128019339D02*
X45608953Y-128590988D01*
X45608953Y-128305163D02*
X44608567Y-128305163D01*
X44608567Y-128305163D02*
X44751479Y-128400438D01*
X44751479Y-128400438D02*
X44846754Y-128495713D01*
X44846754Y-128495713D02*
X44894392Y-128590988D01*
X72395728Y-100836154D02*
X72062395Y-100359963D01*
X71824300Y-100836154D02*
X71824300Y-99836154D01*
X71824300Y-99836154D02*
X72205252Y-99836154D01*
X72205252Y-99836154D02*
X72300490Y-99883773D01*
X72300490Y-99883773D02*
X72348109Y-99931392D01*
X72348109Y-99931392D02*
X72395728Y-100026630D01*
X72395728Y-100026630D02*
X72395728Y-100169487D01*
X72395728Y-100169487D02*
X72348109Y-100264725D01*
X72348109Y-100264725D02*
X72300490Y-100312344D01*
X72300490Y-100312344D02*
X72205252Y-100359963D01*
X72205252Y-100359963D02*
X71824300Y-100359963D01*
X73300490Y-99836154D02*
X72824300Y-99836154D01*
X72824300Y-99836154D02*
X72776681Y-100312344D01*
X72776681Y-100312344D02*
X72824300Y-100264725D01*
X72824300Y-100264725D02*
X72919538Y-100217106D01*
X72919538Y-100217106D02*
X73157633Y-100217106D01*
X73157633Y-100217106D02*
X73252871Y-100264725D01*
X73252871Y-100264725D02*
X73300490Y-100312344D01*
X73300490Y-100312344D02*
X73348109Y-100407582D01*
X73348109Y-100407582D02*
X73348109Y-100645677D01*
X73348109Y-100645677D02*
X73300490Y-100740915D01*
X73300490Y-100740915D02*
X73252871Y-100788535D01*
X73252871Y-100788535D02*
X73157633Y-100836154D01*
X73157633Y-100836154D02*
X72919538Y-100836154D01*
X72919538Y-100836154D02*
X72824300Y-100788535D01*
X72824300Y-100788535D02*
X72776681Y-100740915D01*
X72395728Y-103836154D02*
X72062395Y-103359963D01*
X71824300Y-103836154D02*
X71824300Y-102836154D01*
X71824300Y-102836154D02*
X72205252Y-102836154D01*
X72205252Y-102836154D02*
X72300490Y-102883773D01*
X72300490Y-102883773D02*
X72348109Y-102931392D01*
X72348109Y-102931392D02*
X72395728Y-103026630D01*
X72395728Y-103026630D02*
X72395728Y-103169487D01*
X72395728Y-103169487D02*
X72348109Y-103264725D01*
X72348109Y-103264725D02*
X72300490Y-103312344D01*
X72300490Y-103312344D02*
X72205252Y-103359963D01*
X72205252Y-103359963D02*
X71824300Y-103359963D01*
X73252871Y-103169487D02*
X73252871Y-103836154D01*
X73014776Y-102788535D02*
X72776681Y-103502820D01*
X72776681Y-103502820D02*
X73395728Y-103502820D01*
X97753333Y-101824819D02*
X97420000Y-101348628D01*
X97181905Y-101824819D02*
X97181905Y-100824819D01*
X97181905Y-100824819D02*
X97562857Y-100824819D01*
X97562857Y-100824819D02*
X97658095Y-100872438D01*
X97658095Y-100872438D02*
X97705714Y-100920057D01*
X97705714Y-100920057D02*
X97753333Y-101015295D01*
X97753333Y-101015295D02*
X97753333Y-101158152D01*
X97753333Y-101158152D02*
X97705714Y-101253390D01*
X97705714Y-101253390D02*
X97658095Y-101301009D01*
X97658095Y-101301009D02*
X97562857Y-101348628D01*
X97562857Y-101348628D02*
X97181905Y-101348628D01*
X98086667Y-100824819D02*
X98705714Y-100824819D01*
X98705714Y-100824819D02*
X98372381Y-101205771D01*
X98372381Y-101205771D02*
X98515238Y-101205771D01*
X98515238Y-101205771D02*
X98610476Y-101253390D01*
X98610476Y-101253390D02*
X98658095Y-101301009D01*
X98658095Y-101301009D02*
X98705714Y-101396247D01*
X98705714Y-101396247D02*
X98705714Y-101634342D01*
X98705714Y-101634342D02*
X98658095Y-101729580D01*
X98658095Y-101729580D02*
X98610476Y-101777200D01*
X98610476Y-101777200D02*
X98515238Y-101824819D01*
X98515238Y-101824819D02*
X98229524Y-101824819D01*
X98229524Y-101824819D02*
X98134286Y-101777200D01*
X98134286Y-101777200D02*
X98086667Y-101729580D01*
X56913333Y-103824819D02*
X56580000Y-103348628D01*
X56341905Y-103824819D02*
X56341905Y-102824819D01*
X56341905Y-102824819D02*
X56722857Y-102824819D01*
X56722857Y-102824819D02*
X56818095Y-102872438D01*
X56818095Y-102872438D02*
X56865714Y-102920057D01*
X56865714Y-102920057D02*
X56913333Y-103015295D01*
X56913333Y-103015295D02*
X56913333Y-103158152D01*
X56913333Y-103158152D02*
X56865714Y-103253390D01*
X56865714Y-103253390D02*
X56818095Y-103301009D01*
X56818095Y-103301009D02*
X56722857Y-103348628D01*
X56722857Y-103348628D02*
X56341905Y-103348628D01*
X57294286Y-102920057D02*
X57341905Y-102872438D01*
X57341905Y-102872438D02*
X57437143Y-102824819D01*
X57437143Y-102824819D02*
X57675238Y-102824819D01*
X57675238Y-102824819D02*
X57770476Y-102872438D01*
X57770476Y-102872438D02*
X57818095Y-102920057D01*
X57818095Y-102920057D02*
X57865714Y-103015295D01*
X57865714Y-103015295D02*
X57865714Y-103110533D01*
X57865714Y-103110533D02*
X57818095Y-103253390D01*
X57818095Y-103253390D02*
X57246667Y-103824819D01*
X57246667Y-103824819D02*
X57865714Y-103824819D01*
X56913333Y-96084819D02*
X56580000Y-95608628D01*
X56341905Y-96084819D02*
X56341905Y-95084819D01*
X56341905Y-95084819D02*
X56722857Y-95084819D01*
X56722857Y-95084819D02*
X56818095Y-95132438D01*
X56818095Y-95132438D02*
X56865714Y-95180057D01*
X56865714Y-95180057D02*
X56913333Y-95275295D01*
X56913333Y-95275295D02*
X56913333Y-95418152D01*
X56913333Y-95418152D02*
X56865714Y-95513390D01*
X56865714Y-95513390D02*
X56818095Y-95561009D01*
X56818095Y-95561009D02*
X56722857Y-95608628D01*
X56722857Y-95608628D02*
X56341905Y-95608628D01*
X57865714Y-96084819D02*
X57294286Y-96084819D01*
X57580000Y-96084819D02*
X57580000Y-95084819D01*
X57580000Y-95084819D02*
X57484762Y-95227676D01*
X57484762Y-95227676D02*
X57389524Y-95322914D01*
X57389524Y-95322914D02*
X57294286Y-95370533D01*
X77241905Y-96165429D02*
X77241905Y-95165429D01*
X77241905Y-95165429D02*
X77480000Y-95165429D01*
X77480000Y-95165429D02*
X77622857Y-95213048D01*
X77622857Y-95213048D02*
X77718095Y-95308286D01*
X77718095Y-95308286D02*
X77765714Y-95403524D01*
X77765714Y-95403524D02*
X77813333Y-95594000D01*
X77813333Y-95594000D02*
X77813333Y-95736857D01*
X77813333Y-95736857D02*
X77765714Y-95927333D01*
X77765714Y-95927333D02*
X77718095Y-96022571D01*
X77718095Y-96022571D02*
X77622857Y-96117810D01*
X77622857Y-96117810D02*
X77480000Y-96165429D01*
X77480000Y-96165429D02*
X77241905Y-96165429D01*
X78194286Y-95260667D02*
X78241905Y-95213048D01*
X78241905Y-95213048D02*
X78337143Y-95165429D01*
X78337143Y-95165429D02*
X78575238Y-95165429D01*
X78575238Y-95165429D02*
X78670476Y-95213048D01*
X78670476Y-95213048D02*
X78718095Y-95260667D01*
X78718095Y-95260667D02*
X78765714Y-95355905D01*
X78765714Y-95355905D02*
X78765714Y-95451143D01*
X78765714Y-95451143D02*
X78718095Y-95594000D01*
X78718095Y-95594000D02*
X78146667Y-96165429D01*
X78146667Y-96165429D02*
X78765714Y-96165429D01*
D12*
%TO.C,D1*%
X88275000Y-90000000D02*
X88275000Y-92670000D01*
X89565000Y-90000000D02*
X89565000Y-83840000D01*
X89565000Y-90000000D02*
X84445000Y-90000000D01*
X88275000Y-92670000D02*
X88275000Y-92670000D01*
X85735000Y-92670000D02*
X85735000Y-92670000D01*
X88275000Y-92670000D02*
X88275000Y-90000000D01*
X84445000Y-90000000D02*
X84445000Y-83840000D01*
X88275000Y-90000000D02*
X88275000Y-90000000D01*
X84445000Y-90000000D02*
X84045000Y-90000000D01*
X85735000Y-90000000D02*
X85735000Y-90000000D01*
X84045000Y-88880000D02*
X84445000Y-88880000D01*
X85735000Y-92670000D02*
X85735000Y-90000000D01*
X85735000Y-90000000D02*
X85735000Y-92670000D01*
X84445000Y-88880000D02*
X84445000Y-90000000D01*
X84045000Y-90000000D02*
X84045000Y-88880000D01*
X89565000Y-83840000D02*
G75*
G03*
X84445000Y-83840000I-2560000J0D01*
G01*
D10*
%TO.C,Q1*%
X81192302Y-102584692D02*
X87288302Y-102584692D01*
X87288302Y-102584692D02*
X87288302Y-96742692D01*
X87288302Y-96742692D02*
X81192302Y-96742692D01*
X81192302Y-96742692D02*
X81192302Y-102584692D01*
D13*
%TO.C,U1*%
X100850000Y-131950000D02*
X46450000Y-131950000D01*
X46450000Y-131950000D02*
X46450000Y-104050000D01*
X46450000Y-104050000D02*
X100850000Y-104050000D01*
X100850000Y-104050000D02*
X100850000Y-131950000D01*
D14*
X53940000Y-132600000D02*
G75*
G03*
X53940000Y-132600000I-100000J0D01*
G01*
D12*
%TO.C,R5*%
X69292395Y-99381335D02*
X75832395Y-99381335D01*
X75832395Y-96641335D02*
X69292395Y-96641335D01*
X69292395Y-96641335D02*
X69292395Y-99381335D01*
X75832395Y-99381335D02*
X75832395Y-96641335D01*
X76602395Y-98011335D02*
X75832395Y-98011335D01*
X68522395Y-98011335D02*
X69292395Y-98011335D01*
%TO.C,R4*%
X69292395Y-102381335D02*
X75832395Y-102381335D01*
X75832395Y-99641335D02*
X69292395Y-99641335D01*
X69292395Y-99641335D02*
X69292395Y-102381335D01*
X75832395Y-102381335D02*
X75832395Y-99641335D01*
X76602395Y-101011335D02*
X75832395Y-101011335D01*
X68522395Y-101011335D02*
X69292395Y-101011335D01*
%TO.C,R3*%
X94650000Y-100370000D02*
X101190000Y-100370000D01*
X101190000Y-97630000D02*
X94650000Y-97630000D01*
X94650000Y-97630000D02*
X94650000Y-100370000D01*
X101190000Y-100370000D02*
X101190000Y-97630000D01*
X101960000Y-99000000D02*
X101190000Y-99000000D01*
X93880000Y-99000000D02*
X94650000Y-99000000D01*
%TO.C,R2*%
X53810000Y-102370000D02*
X60350000Y-102370000D01*
X60350000Y-99630000D02*
X53810000Y-99630000D01*
X53810000Y-99630000D02*
X53810000Y-102370000D01*
X60350000Y-102370000D02*
X60350000Y-99630000D01*
X61120000Y-101000000D02*
X60350000Y-101000000D01*
X53040000Y-101000000D02*
X53810000Y-101000000D01*
%TO.C,R1*%
X60350000Y-96630000D02*
X53810000Y-96630000D01*
X53810000Y-99370000D02*
X60350000Y-99370000D01*
X60350000Y-99370000D02*
X60350000Y-96630000D01*
X53810000Y-96630000D02*
X53810000Y-99370000D01*
X53040000Y-98000000D02*
X53810000Y-98000000D01*
X61120000Y-98000000D02*
X60350000Y-98000000D01*
%TO.C,D2*%
X76710000Y-90000610D02*
X76710000Y-90000610D01*
X76710000Y-92670610D02*
X76710000Y-90000610D01*
X76020000Y-90000610D02*
X76020000Y-88880610D01*
X79250000Y-90000610D02*
X79250000Y-92670610D01*
X76420000Y-90000610D02*
X76020000Y-90000610D01*
X79540000Y-90000610D02*
X79540000Y-86140610D01*
X79540000Y-90000610D02*
X76420000Y-90000610D01*
X79250000Y-92670610D02*
X79250000Y-92670610D01*
X76710000Y-92670610D02*
X76710000Y-92670610D01*
X79250000Y-92670610D02*
X79250000Y-90000610D01*
X76020000Y-88880610D02*
X76420000Y-88880610D01*
X76710000Y-90000610D02*
X76710000Y-92670610D01*
X79250000Y-90000610D02*
X79250000Y-90000610D01*
X76420000Y-90000610D02*
X76420000Y-86140610D01*
X76420000Y-88880610D02*
X76420000Y-90000610D01*
X79540000Y-86140610D02*
G75*
G03*
X76420000Y-86140610I-1560000J0D01*
G01*
%TD*%
M02*
