%TF.GenerationSoftware,KiCad,Pcbnew,7.0.8*%
%TF.CreationDate,2024-04-25T10:28:12-06:00*%
%TF.ProjectId,ProtoBadge,50726f74-6f42-4616-9467-652e6b696361,rev?*%
%TF.SameCoordinates,Original*%
%TF.FileFunction,Plated,1,2,PTH,Drill*%
%TF.FilePolarity,Positive*%
%FSLAX46Y46*%
G04 Gerber Fmt 4.6, Leading zero omitted, Abs format (unit mm)*
G04 Created by KiCad (PCBNEW 7.0.8) date 2024-04-25 10:28:12*
%MOMM*%
%LPD*%
G01*
G04 APERTURE LIST*
%TA.AperFunction,ComponentDrill*%
%ADD10C,0.800000*%
%TD*%
%TA.AperFunction,ComponentDrill*%
%ADD11C,0.900000*%
%TD*%
%TA.AperFunction,ComponentDrill*%
%ADD12C,1.040000*%
%TD*%
%TA.AperFunction,ComponentDrill*%
%ADD13C,1.100000*%
%TD*%
G04 APERTURE END LIST*
D10*
%TO.C,R1*%
X52000000Y-98000000D03*
%TO.C,R2*%
X52000000Y-101000000D03*
%TO.C,R1*%
X62160000Y-98000000D03*
%TO.C,R2*%
X62160000Y-101000000D03*
%TO.C,R5*%
X67482395Y-98011335D03*
%TO.C,R4*%
X67482395Y-101011335D03*
%TO.C,R5*%
X77642395Y-98011335D03*
%TO.C,R4*%
X77642395Y-101011335D03*
%TO.C,Q1*%
X88812302Y-96996692D03*
X88812302Y-99536692D03*
X88812302Y-102076692D03*
%TO.C,R3*%
X92840000Y-99000000D03*
X103000000Y-99000000D03*
D11*
%TO.C,D2*%
X76710000Y-93750610D03*
X79250000Y-93750610D03*
%TO.C,D1*%
X85735000Y-93750000D03*
X88275000Y-93750000D03*
D12*
%TO.C,U1*%
X53840000Y-105300000D03*
X53840000Y-130700000D03*
X56380000Y-105300000D03*
X56380000Y-130700000D03*
X58920000Y-105300000D03*
X58920000Y-130700000D03*
X61460000Y-105300000D03*
X61460000Y-130700000D03*
X64000000Y-105300000D03*
X64000000Y-130700000D03*
X66540000Y-105300000D03*
X66540000Y-130700000D03*
X69080000Y-105300000D03*
X69080000Y-130700000D03*
X71620000Y-105300000D03*
X71620000Y-130700000D03*
X74160000Y-105300000D03*
X74160000Y-130700000D03*
X76700000Y-105300000D03*
X76700000Y-130700000D03*
X79240000Y-105300000D03*
X79240000Y-130700000D03*
X81780000Y-105300000D03*
X81780000Y-130700000D03*
X84320000Y-105300000D03*
X84320000Y-130700000D03*
X86860000Y-105300000D03*
X86860000Y-130700000D03*
X89400000Y-105300000D03*
X89400000Y-130700000D03*
X91940000Y-105300000D03*
X91940000Y-130700000D03*
X94480000Y-105300000D03*
X94480000Y-130700000D03*
X97020000Y-105300000D03*
X97020000Y-130700000D03*
X99560000Y-105300000D03*
X99560000Y-130700000D03*
D13*
%TO.C,J2*%
X104000000Y-131000000D03*
%TO.C,J1*%
X104470519Y-93019691D03*
M02*
